<svg xmlns="http://www.w3.org/2000/svg" xmlns:xlink="http://www.w3.org/1999/xlink" width="2240" zoomAndPan="magnify" viewBox="0 0 1680 944.999993" height="1260" preserveAspectRatio="xMidYMid meet" version="1.2"><defs/><g id="d438d13625"><rect x="0" width="1680" y="0" height="944.999993" style="fill:#ffffff;fill-opacity:1;stroke:none;"/><rect x="0" width="1680" y="0" height="944.999993" style="fill:#ffffff;fill-opacity:1;stroke:none;"/><g style="fill:#000000;fill-opacity:1;"><g transform="translate(238.289056, 560.781804)"><path style="stroke:none" d="M -2.796875 3.734375 C -8.710938 3.734375 -11.671875 0.15625 -11.671875 -7 C -11.671875 -13.53125 -8.945312 -20.296875 -3.5 -27.296875 C 1.945312 -34.296875 8.710938 -40.285156 16.796875 -45.265625 C 16.796875 -45.578125 16.875 -45.734375 17.03125 -45.734375 C 17.1875 -45.734375 17.265625 -45.890625 17.265625 -46.203125 C 18.503906 -48.679688 20.0625 -49.613281 21.9375 -49 C 22.550781 -48.6875 23.171875 -48.6875 23.796875 -49 C 25.972656 -50.238281 28.148438 -51.015625 30.328125 -51.328125 C 30.328125 -51.640625 30.640625 -51.796875 31.265625 -51.796875 C 32.816406 -51.796875 33.59375 -50.863281 33.59375 -49 C 33.59375 -47.4375 32.972656 -46.65625 31.734375 -46.65625 C 31.421875 -46.351562 31.109375 -46.203125 30.796875 -46.203125 C 30.484375 -46.203125 30.171875 -46.046875 29.859375 -45.734375 C 28.929688 -45.421875 28.929688 -44.953125 29.859375 -44.328125 C 42.617188 -36.859375 56.382812 -32.734375 71.15625 -31.953125 C 85.9375 -31.179688 98.925781 -34.0625 110.125 -40.59375 L 111.515625 -40.59375 C 113.390625 -40.59375 114.328125 -39.816406 114.328125 -38.265625 C 114.328125 -37.328125 113.703125 -36.550781 112.453125 -35.9375 C 100.328125 -29.09375 86.175781 -26.054688 70 -26.828125 C 53.820312 -27.609375 38.890625 -32.195312 25.203125 -40.59375 C 24.265625 -41.53125 23.796875 -41.21875 23.796875 -39.65625 C 24.734375 -33.75 23.957031 -27.375 21.46875 -20.53125 C 18.976562 -13.6875 15.554688 -7.929688 11.203125 -3.265625 C 6.847656 1.398438 2.179688 3.734375 -2.796875 3.734375 Z M -2.796875 -1.40625 C 0.929688 -1.40625 4.582031 -3.582031 8.15625 -7.9375 C 11.738281 -12.289062 14.617188 -17.5 16.796875 -23.5625 C 18.972656 -29.625 19.597656 -35.144531 18.671875 -40.125 C 11.515625 -35.769531 5.523438 -30.484375 0.703125 -24.265625 C -4.117188 -18.046875 -6.53125 -12.289062 -6.53125 -7 C -6.53125 -3.269531 -5.285156 -1.40625 -2.796875 -1.40625 Z M -2.796875 -1.40625 "/></g></g><g style="fill:#000000;fill-opacity:1;"><g transform="translate(339.078781, 560.781804)"><path style="stroke:none" d="M -98.453125 118.515625 C -101.253906 118.515625 -102.1875 116.960938 -101.25 113.859375 L -100.796875 113.390625 C -100.484375 112.765625 -100.25 112.21875 -100.09375 111.75 C -99.9375 111.289062 -99.703125 110.90625 -99.390625 110.59375 C -76.992188 75.4375 -52.03125 39.816406 -24.5 3.734375 C 3.03125 -32.347656 31.414062 -67.65625 60.65625 -102.1875 C 40.75 -101.257812 21.226562 -100.015625 2.09375 -98.453125 C -17.03125 -96.898438 -35.304688 -94.878906 -52.734375 -92.390625 L -53.1875 -92.390625 C -55.0625 -92.390625 -56 -93.320312 -56 -95.1875 C -56 -96.4375 -55.21875 -97.367188 -53.65625 -97.984375 C -35.300781 -100.472656 -16.09375 -102.492188 3.96875 -104.046875 C 24.03125 -105.609375 44.484375 -106.703125 65.328125 -107.328125 C 78.390625 -122.878906 91.53125 -138.039062 104.75 -152.8125 C 117.976562 -167.59375 131.125 -182.140625 144.1875 -196.453125 C 144.8125 -197.066406 145.429688 -197.375 146.046875 -197.375 C 147.921875 -197.375 148.859375 -196.441406 148.859375 -194.578125 C 148.859375 -193.648438 148.703125 -193.03125 148.390625 -192.71875 C 135.941406 -179.34375 123.414062 -165.5 110.8125 -151.1875 C 98.21875 -136.875 85.546875 -122.410156 72.796875 -107.796875 C 111.992188 -109.347656 151.035156 -109.347656 189.921875 -107.796875 C 191.472656 -107.796875 192.25 -106.859375 192.25 -104.984375 C 192.25 -103.429688 191.316406 -102.65625 189.453125 -102.65625 C 169.535156 -103.28125 149.3125 -103.59375 128.78125 -103.59375 C 108.25 -103.59375 87.875 -103.125 67.65625 -102.1875 C 38.726562 -68.28125 10.578125 -33.519531 -16.796875 2.09375 C -44.171875 37.71875 -68.898438 72.953125 -90.984375 107.796875 C -89.742188 108.410156 -89.742188 109.5 -90.984375 111.0625 C -92.234375 112.925781 -93.476562 114.632812 -94.71875 116.1875 C -95.96875 117.738281 -97.210938 118.515625 -98.453125 118.515625 Z M -98.453125 118.515625 "/></g></g><g style="fill:#000000;fill-opacity:1;"><g transform="translate(408.605012, 560.781804)"><path style="stroke:none" d="M -28.46875 28 C -30.957031 28 -32.203125 26.753906 -32.203125 24.265625 C -32.203125 20.222656 -28.46875 12.445312 -21 0.9375 C -13.53125 -10.570312 -3.578125 -24.257812 8.859375 -40.125 C 21.304688 -55.988281 35.148438 -72.863281 50.390625 -90.75 C 65.640625 -108.644531 81.117188 -126.222656 96.828125 -143.484375 C 112.535156 -160.753906 127.390625 -176.460938 141.390625 -190.609375 C 155.390625 -204.765625 167.441406 -216.039062 177.546875 -224.4375 C 187.660156 -232.84375 194.582031 -237.046875 198.3125 -237.046875 C 203.601562 -237.046875 206.25 -234.398438 206.25 -229.109375 C 206.25 -224.441406 202.75 -216.820312 195.75 -206.25 C 188.75 -195.675781 179.101562 -183.390625 166.8125 -169.390625 C 154.53125 -155.390625 140.222656 -140.53125 123.890625 -124.8125 C 107.554688 -109.101562 89.898438 -93.628906 70.921875 -78.390625 C 51.953125 -63.148438 32.507812 -49.148438 12.59375 -36.390625 C 5.132812 -26.753906 -1.46875 -17.96875 -7.21875 -10.03125 C -12.976562 -2.101562 -17.570312 4.660156 -21 10.265625 C -22.863281 13.378906 -23.328125 14.9375 -22.390625 14.9375 C -21.460938 14.9375 -19.910156 13.691406 -17.734375 11.203125 C -14.617188 8.085938 -11.191406 4.738281 -7.453125 1.15625 C -3.722656 -2.414062 0.160156 -6.066406 4.203125 -9.796875 C 31.578125 -35.617188 49.929688 -48.53125 59.265625 -48.53125 C 63.617188 -48.53125 65.796875 -46.195312 65.796875 -41.53125 C 65.796875 -39.351562 65.328125 -36.863281 64.390625 -34.0625 C 63.460938 -31.257812 62.375 -28.460938 61.125 -25.671875 C 60.195312 -22.867188 59.265625 -20.222656 58.328125 -17.734375 C 57.390625 -15.242188 56.921875 -13.066406 56.921875 -11.203125 C 56.921875 -5.910156 60.34375 -3.265625 67.1875 -3.265625 C 74.03125 -3.265625 82.972656 -5.285156 94.015625 -9.328125 C 105.066406 -13.378906 116.269531 -18.28125 127.625 -24.03125 C 138.976562 -29.78125 148.695312 -35.300781 156.78125 -40.59375 L 158.1875 -40.59375 C 160.050781 -40.59375 160.984375 -39.816406 160.984375 -38.265625 C 160.984375 -37.328125 160.515625 -36.550781 159.578125 -35.9375 C 151.492188 -30.644531 141.617188 -25.039062 129.953125 -19.125 C 118.285156 -13.21875 106.773438 -8.164062 95.421875 -3.96875 C 84.066406 0.226562 74.65625 2.328125 67.1875 2.328125 C 56.925781 2.328125 51.796875 -2.179688 51.796875 -11.203125 C 51.796875 -13.691406 52.257812 -16.410156 53.1875 -19.359375 C 54.125 -22.316406 55.21875 -25.195312 56.46875 -28 C 57.394531 -30.488281 58.320312 -32.976562 59.25 -35.46875 C 60.1875 -37.957031 60.65625 -39.976562 60.65625 -41.53125 C 60.65625 -42.769531 60.191406 -43.390625 59.265625 -43.390625 C 51.484375 -43.390625 34.375 -30.945312 7.9375 -6.0625 C 3.882812 -2.019531 -0.00390625 1.785156 -3.734375 5.359375 C -7.460938 8.941406 -10.882812 12.132812 -14 14.9375 C -17.414062 18.664062 -20.445312 21.773438 -23.09375 24.265625 C -25.738281 26.753906 -27.53125 28 -28.46875 28 Z M 23.328125 -49.46875 C 41.992188 -62.21875 60.113281 -75.898438 77.6875 -90.515625 C 95.269531 -105.140625 111.523438 -119.6875 126.453125 -134.15625 C 141.390625 -148.625 154.457031 -162.3125 165.65625 -175.21875 C 176.851562 -188.125 185.5625 -199.320312 191.78125 -208.8125 C 198 -218.300781 201.109375 -225.066406 201.109375 -229.109375 C 201.109375 -230.671875 200.175781 -231.453125 198.3125 -231.453125 C 195.207031 -231.453125 189.21875 -227.640625 180.34375 -220.015625 C 171.476562 -212.390625 160.742188 -202.195312 148.140625 -189.4375 C 135.546875 -176.6875 121.9375 -162.378906 107.3125 -146.515625 C 92.695312 -130.648438 78.15625 -114.316406 63.6875 -97.515625 C 49.226562 -80.722656 35.773438 -64.707031 23.328125 -49.46875 Z M 23.328125 -49.46875 "/></g></g><g style="fill:#000000;fill-opacity:1;"><g transform="translate(556.056677, 560.781804)"><path style="stroke:none" d="M 15.40625 1.40625 C 8.5625 1.40625 3.195312 0.160156 -0.6875 -2.328125 C -4.582031 -4.816406 -6.53125 -8.394531 -6.53125 -13.0625 C -6.53125 -18.351562 -4.351562 -23.953125 0 -29.859375 C 4.351562 -35.773438 9.5625 -40.910156 15.625 -45.265625 C 21.695312 -49.617188 27.222656 -51.796875 32.203125 -51.796875 C 37.796875 -51.796875 40.59375 -49.304688 40.59375 -44.328125 C 40.59375 -41.210938 38.492188 -38.253906 34.296875 -35.453125 C 30.097656 -32.660156 25.820312 -31.265625 21.46875 -31.265625 C 16.175781 -31.265625 12.285156 -31.882812 9.796875 -33.125 C 6.691406 -30.019531 4.125 -26.675781 2.09375 -23.09375 C 0.0703125 -19.519531 -0.9375 -16.175781 -0.9375 -13.0625 C -0.9375 -7.15625 4.507812 -4.203125 15.40625 -4.203125 C 20.0625 -4.203125 27.367188 -5.597656 37.328125 -8.390625 C 47.285156 -11.191406 58.40625 -15.238281 70.6875 -20.53125 C 82.976562 -25.820312 94.410156 -32.351562 104.984375 -40.125 C 105.296875 -40.4375 105.765625 -40.59375 106.390625 -40.59375 C 108.253906 -40.59375 109.1875 -39.816406 109.1875 -38.265625 C 109.1875 -37.328125 108.722656 -36.550781 107.796875 -35.9375 C 96.898438 -27.84375 85.226562 -20.992188 72.78125 -15.390625 C 60.34375 -9.796875 48.910156 -5.597656 38.484375 -2.796875 C 28.066406 0.00390625 20.375 1.40625 15.40625 1.40625 Z M 21.46875 -36.390625 C 23.957031 -36.390625 26.910156 -37.398438 30.328125 -39.421875 C 33.753906 -41.453125 35.46875 -43.085938 35.46875 -44.328125 C 35.46875 -45.578125 34.378906 -46.203125 32.203125 -46.203125 C 29.398438 -46.203125 26.441406 -45.34375 23.328125 -43.625 C 20.222656 -41.914062 17.113281 -39.816406 14 -37.328125 C 14.9375 -37.015625 16.023438 -36.78125 17.265625 -36.625 C 18.503906 -36.46875 19.90625 -36.390625 21.46875 -36.390625 Z M 21.46875 -36.390625 "/></g></g><g style="fill:#000000;fill-opacity:1;"><g transform="translate(651.713625, 560.781804)"><path style="stroke:none" d="M 6.0625 50.390625 C -2.332031 50.390625 -6.53125 46.347656 -6.53125 38.265625 C -6.53125 32.972656 -4.117188 26.828125 0.703125 19.828125 C 5.523438 12.828125 11.664062 5.519531 19.125 -2.09375 C 26.59375 -9.71875 34.0625 -17.421875 41.53125 -25.203125 C 51.488281 -35.148438 60.351562 -44.320312 68.125 -52.71875 C 75.90625 -61.125 79.796875 -67.503906 79.796875 -71.859375 C 79.796875 -74.660156 75.59375 -79.015625 67.1875 -84.921875 C 58.476562 -75.898438 49.222656 -67.035156 39.421875 -58.328125 C 29.628906 -49.617188 20.53125 -42.15625 12.125 -35.9375 C 11.820312 -35.625 11.203125 -35.46875 10.265625 -35.46875 C 8.710938 -35.46875 7.9375 -36.398438 7.9375 -38.265625 C 7.9375 -38.890625 8.242188 -39.507812 8.859375 -40.125 C 18.191406 -46.96875 27.523438 -54.585938 36.859375 -62.984375 C 46.191406 -71.390625 54.75 -79.632812 62.53125 -87.71875 C 58.488281 -90.519531 55.300781 -92.851562 52.96875 -94.71875 C 50.632812 -96.59375 49.46875 -98.617188 49.46875 -100.796875 C 49.46875 -103.585938 51.175781 -107.082031 54.59375 -111.28125 C 58.019531 -115.488281 62.296875 -119.535156 67.421875 -123.421875 C 72.554688 -127.304688 77.765625 -130.570312 83.046875 -133.21875 C 88.335938 -135.863281 92.851562 -137.1875 96.59375 -137.1875 C 100.007812 -137.1875 101.71875 -135.320312 101.71875 -131.59375 C 101.71875 -128.476562 98.835938 -122.953125 93.078125 -115.015625 C 87.328125 -107.085938 79.941406 -98.300781 70.921875 -88.65625 C 74.972656 -84.925781 78.394531 -81.894531 81.1875 -79.5625 C 83.988281 -77.226562 85.390625 -74.660156 85.390625 -71.859375 C 85.390625 -66.265625 81.1875 -58.878906 72.78125 -49.703125 C 64.382812 -40.523438 55.210938 -30.957031 45.265625 -21 C 37.796875 -13.53125 30.484375 -6.144531 23.328125 1.15625 C 16.171875 8.46875 10.257812 15.3125 5.59375 21.6875 C 0.925781 28.070312 -1.40625 33.597656 -1.40625 38.265625 C -1.40625 42.617188 1.082031 44.796875 6.0625 44.796875 C 12.59375 44.796875 22.003906 41.992188 34.296875 36.390625 C 46.585938 30.796875 60.117188 23.640625 74.890625 14.921875 C 89.671875 6.210938 104.445312 -3.035156 119.21875 -12.828125 C 134 -22.628906 147.144531 -31.726562 158.65625 -40.125 C 158.96875 -40.4375 159.429688 -40.59375 160.046875 -40.59375 C 161.921875 -40.59375 162.859375 -39.816406 162.859375 -38.265625 C 162.859375 -37.328125 162.546875 -36.550781 161.921875 -35.9375 C 150.410156 -27.53125 137.1875 -18.347656 122.25 -8.390625 C 107.320312 1.554688 92.234375 10.960938 76.984375 19.828125 C 61.742188 28.691406 47.898438 36 35.453125 41.75 C 23.015625 47.507812 13.21875 50.390625 6.0625 50.390625 Z M 66.265625 -91.453125 C 69.679688 -94.878906 73.488281 -99.078125 77.6875 -104.046875 C 81.894531 -109.023438 85.785156 -113.847656 89.359375 -118.515625 C 92.929688 -123.179688 95.1875 -126.757812 96.125 -129.25 C 96.75 -131.125 96.128906 -131.75 94.265625 -131.125 C 90.210938 -130.5 85.078125 -128.164062 78.859375 -124.125 C 72.640625 -120.082031 67.117188 -115.878906 62.296875 -111.515625 C 57.472656 -107.160156 55.0625 -103.585938 55.0625 -100.796875 C 55.0625 -100.484375 55.914062 -99.546875 57.625 -97.984375 C 59.332031 -96.429688 62.210938 -94.253906 66.265625 -91.453125 Z M 66.265625 -91.453125 "/></g></g><g style="fill:#000000;fill-opacity:1;"><g transform="translate(801.49833, 560.781804)"><path style="stroke:none" d="M -13.0625 2.796875 C -15.863281 2.171875 -17.265625 0.617188 -17.265625 -1.859375 C -17.265625 -4.046875 -15.164062 -8.328125 -10.96875 -14.703125 C -6.769531 -21.078125 -1.5625 -27.921875 4.65625 -35.234375 C 10.882812 -42.546875 16.644531 -48.6875 21.9375 -53.65625 C 22.238281 -53.96875 22.859375 -54.125 23.796875 -54.125 C 25.660156 -54.125 26.59375 -53.191406 26.59375 -51.328125 C 26.59375 -50.703125 26.285156 -50.082031 25.671875 -49.46875 C 18.203125 -42.625 11.351562 -35.3125 5.125 -27.53125 C -1.09375 -19.75 -5.601562 -13.375 -8.40625 -8.40625 C -9.019531 -7.46875 -9.015625 -6.84375 -8.390625 -6.53125 C -7.773438 -6.21875 -7.15625 -6.21875 -6.53125 -6.53125 C -4.039062 -8.082031 -1.085938 -10.257812 2.328125 -13.0625 C 5.753906 -15.863281 9.957031 -19.285156 14.9375 -23.328125 C 32.351562 -37.640625 45.335938 -47.671875 53.890625 -53.421875 C 62.453125 -59.179688 68.910156 -62.0625 73.265625 -62.0625 C 79.796875 -62.0625 83.0625 -59.726562 83.0625 -55.0625 C 83.0625 -51.019531 78.082031 -41.375 68.125 -26.125 L 61.125 -14.9375 C 60.5 -14 60.421875 -13.296875 60.890625 -12.828125 C 61.359375 -12.359375 62.0625 -12.28125 63 -12.59375 L 73.265625 -19.125 C 78.546875 -22.238281 84.0625 -25.269531 89.8125 -28.21875 C 95.570312 -31.175781 100.007812 -32.65625 103.125 -32.65625 C 107.164062 -32.65625 109.1875 -30.476562 109.1875 -26.125 C 109.1875 -24.882812 109.109375 -23.640625 108.953125 -22.390625 C 108.796875 -21.148438 108.71875 -19.910156 108.71875 -18.671875 C 108.40625 -17.421875 108.171875 -16.015625 108.015625 -14.453125 C 107.867188 -12.898438 107.796875 -11.347656 107.796875 -9.796875 C 107.796875 -7.304688 109.972656 -6.0625 114.328125 -6.0625 C 120.234375 -6.0625 128.316406 -8.707031 138.578125 -14 C 148.847656 -19.289062 162.847656 -28 180.578125 -40.125 C 180.890625 -40.4375 181.359375 -40.59375 181.984375 -40.59375 C 183.847656 -40.59375 184.78125 -39.816406 184.78125 -38.265625 C 184.78125 -37.328125 184.316406 -36.550781 183.390625 -35.9375 C 165.335938 -23.488281 150.945312 -14.539062 140.21875 -9.09375 C 129.488281 -3.65625 120.859375 -0.9375 114.328125 -0.9375 C 106.546875 -0.9375 102.65625 -3.890625 102.65625 -9.796875 C 102.65625 -11.347656 102.65625 -12.976562 102.65625 -14.6875 C 102.65625 -16.40625 102.8125 -17.882812 103.125 -19.125 C 103.4375 -20.6875 103.671875 -22.007812 103.828125 -23.09375 C 103.984375 -24.1875 104.0625 -25.195312 104.0625 -26.125 C 104.0625 -27.0625 103.4375 -27.53125 102.1875 -27.53125 C 100.632812 -27.53125 97.910156 -26.597656 94.015625 -24.734375 C 90.128906 -22.867188 84.144531 -19.445312 76.0625 -14.46875 C 69.84375 -10.425781 65.332031 -7.703125 62.53125 -6.296875 C 59.726562 -4.898438 57.550781 -4.203125 56 -4.203125 C 53.820312 -4.203125 52.734375 -5.601562 52.734375 -8.40625 C 52.734375 -9.957031 53.507812 -12.207031 55.0625 -15.15625 C 56.613281 -18.113281 59.566406 -22.707031 63.921875 -28.9375 C 68.898438 -36.707031 72.398438 -42.535156 74.421875 -46.421875 C 76.441406 -50.316406 77.453125 -53.039062 77.453125 -54.59375 C 77.453125 -56.144531 76.519531 -56.921875 74.65625 -56.921875 C 70.925781 -56.921875 65.945312 -54.976562 59.71875 -51.09375 C 53.5 -47.207031 46.8125 -42.382812 39.65625 -36.625 C 32.507812 -30.875 25.359375 -25.195312 18.203125 -19.59375 C 7.617188 -10.882812 0.226562 -4.972656 -3.96875 -1.859375 C -8.164062 1.242188 -11.195312 2.796875 -13.0625 2.796875 Z M -13.0625 2.796875 "/></g></g><g style="fill:#000000;fill-opacity:1;"><g transform="translate(973.214174, 560.781804)"><path style="stroke:none" d="M 33.59375 -60.1875 C 31.726562 -60.1875 30.796875 -60.96875 30.796875 -62.53125 C 30.796875 -63.457031 30.953125 -64.078125 31.265625 -64.390625 L 33.125 -66.265625 C 33.75 -67.191406 34.523438 -68.273438 35.453125 -69.515625 C 36.390625 -70.765625 37.015625 -71.703125 37.328125 -72.328125 C 37.953125 -72.953125 38.726562 -73.265625 39.65625 -73.265625 C 41.21875 -73.265625 42 -72.328125 42 -70.453125 C 42 -69.523438 41.84375 -68.90625 41.53125 -68.59375 C 40.28125 -67.351562 38.878906 -65.488281 37.328125 -63 L 35.46875 -61.125 C 35.15625 -60.5 34.53125 -60.1875 33.59375 -60.1875 Z M 3.734375 2.796875 C -4.660156 2.796875 -8.859375 -1.242188 -8.859375 -9.328125 C -8.859375 -13.679688 -6.289062 -19.671875 -1.15625 -27.296875 C 3.96875 -34.921875 10.882812 -43.085938 19.59375 -51.796875 C 19.90625 -52.109375 20.53125 -52.265625 21.46875 -52.265625 C 23.332031 -52.265625 24.265625 -51.484375 24.265625 -49.921875 C 24.265625 -49.304688 23.953125 -48.6875 23.328125 -48.0625 C 15.554688 -39.976562 9.101562 -32.359375 3.96875 -25.203125 C -1.164062 -18.046875 -3.734375 -12.753906 -3.734375 -9.328125 C -3.734375 -4.972656 -1.242188 -2.796875 3.734375 -2.796875 C 7.460938 -2.796875 12.828125 -3.960938 19.828125 -6.296875 C 26.828125 -8.628906 34.679688 -11.738281 43.390625 -15.625 C 52.109375 -19.519531 60.664062 -23.644531 69.0625 -28 C 77.457031 -32.351562 84.613281 -36.550781 90.53125 -40.59375 L 91.921875 -40.59375 C 93.785156 -40.59375 94.71875 -39.816406 94.71875 -38.265625 C 94.71875 -37.328125 94.410156 -36.550781 93.796875 -35.9375 C 87.566406 -31.882812 80.175781 -27.601562 71.625 -23.09375 C 63.070312 -18.582031 54.285156 -14.382812 45.265625 -10.5 C 36.242188 -6.613281 28.078125 -3.425781 20.765625 -0.9375 C 13.453125 1.550781 7.773438 2.796875 3.734375 2.796875 Z M 3.734375 2.796875 "/></g></g><g style="fill:#000000;fill-opacity:1;"><g transform="translate(1054.87248, 560.781804)"><path style="stroke:none" d="M -13.0625 0 C -16.175781 0 -17.421875 -1.710938 -16.796875 -5.140625 C -16.484375 -6.691406 -14.535156 -10.03125 -10.953125 -15.15625 C -7.378906 -20.289062 -2.796875 -26.203125 2.796875 -32.890625 C 8.398438 -39.578125 14.546875 -46.421875 21.234375 -53.421875 C 27.921875 -60.421875 34.6875 -66.410156 41.53125 -71.390625 C 41.84375 -71.703125 42.460938 -71.859375 43.390625 -71.859375 C 44.953125 -71.859375 45.734375 -71.082031 45.734375 -69.53125 C 45.734375 -68.59375 45.421875 -67.8125 44.796875 -67.1875 C 35.460938 -60.34375 26.285156 -51.785156 17.265625 -41.515625 C 8.242188 -31.253906 1.085938 -22.550781 -4.203125 -15.40625 C -4.515625 -14.78125 -4.59375 -14.15625 -4.4375 -13.53125 C -4.28125 -12.90625 -3.578125 -12.90625 -2.328125 -13.53125 C 33.753906 -39.664062 57.394531 -52.734375 68.59375 -52.734375 C 73.570312 -52.734375 76.0625 -50.554688 76.0625 -46.203125 C 76.0625 -44.015625 75.671875 -41.207031 74.890625 -37.78125 C 74.117188 -34.363281 73.421875 -30.945312 72.796875 -27.53125 C 70.929688 -21.625 70 -17.113281 70 -14 C 70 -11.507812 71.707031 -10.265625 75.125 -10.265625 C 82.90625 -10.265625 93.328125 -12.984375 106.390625 -18.421875 C 119.453125 -23.867188 132.984375 -31.257812 146.984375 -40.59375 L 148.390625 -40.59375 C 150.253906 -40.59375 151.1875 -39.816406 151.1875 -38.265625 C 151.1875 -37.328125 150.71875 -36.550781 149.78125 -35.9375 C 135.476562 -26.601562 121.554688 -19.132812 108.015625 -13.53125 C 94.484375 -7.9375 83.519531 -5.140625 75.125 -5.140625 C 67.96875 -5.140625 64.390625 -8.09375 64.390625 -14 C 64.390625 -15.550781 64.703125 -17.648438 65.328125 -20.296875 C 65.953125 -22.941406 66.570312 -25.820312 67.1875 -28.9375 C 68.125 -32.351562 68.976562 -35.613281 69.75 -38.71875 C 70.53125 -41.832031 70.921875 -44.015625 70.921875 -45.265625 C 70.921875 -46.816406 70.144531 -47.59375 68.59375 -47.59375 C 63.613281 -47.59375 56.769531 -45.179688 48.0625 -40.359375 C 39.351562 -35.535156 30.488281 -29.9375 21.46875 -23.5625 C 12.445312 -17.1875 4.820312 -11.820312 -1.40625 -7.46875 C -4.195312 -5.601562 -6.601562 -3.890625 -8.625 -2.328125 C -10.65625 -0.773438 -12.132812 0 -13.0625 0 Z M -13.0625 0 "/></g></g><g style="fill:#000000;fill-opacity:1;"><g transform="translate(1192.525216, 560.781804)"><path style="stroke:none" d="M 47.125 0.46875 C 35.925781 0.46875 30.328125 -4.195312 30.328125 -13.53125 C 30.328125 -17.570312 33.75 -25.191406 40.59375 -36.390625 C 41.21875 -37.328125 41.375 -37.953125 41.0625 -38.265625 C 40.75 -38.578125 40.128906 -38.421875 39.203125 -37.796875 C 27.066406 -26.597656 16.796875 -17.578125 8.390625 -10.734375 C -0.00390625 -3.890625 -6.222656 -0.46875 -10.265625 -0.46875 C -14.304688 -0.46875 -16.328125 -2.644531 -16.328125 -7 C -16.328125 -12.90625 -13.296875 -19.28125 -7.234375 -26.125 C -1.171875 -32.96875 6.054688 -38.957031 14.453125 -44.09375 C 22.859375 -49.226562 30.484375 -51.796875 37.328125 -51.796875 C 40.753906 -51.796875 43.242188 -51.171875 44.796875 -49.921875 C 46.972656 -52.097656 49.148438 -54.117188 51.328125 -55.984375 C 53.503906 -57.859375 55.679688 -59.882812 57.859375 -62.0625 C 67.503906 -75.4375 78.625 -90.132812 91.21875 -106.15625 C 103.820312 -122.175781 116.890625 -138.039062 130.421875 -153.75 C 143.953125 -169.457031 156.78125 -183.765625 168.90625 -196.671875 C 181.039062 -209.585938 191.539062 -219.929688 200.40625 -227.703125 C 209.28125 -235.484375 215.425781 -239.375 218.84375 -239.375 C 223.195312 -239.375 225.375 -237.351562 225.375 -233.3125 C 225.375 -230.820312 221.953125 -225.222656 215.109375 -216.515625 C 208.265625 -207.804688 199.007812 -197.148438 187.34375 -184.546875 C 175.675781 -171.953125 162.6875 -158.1875 148.375 -143.25 C 134.070312 -128.320312 119.296875 -113.390625 104.046875 -98.453125 C 88.804688 -83.523438 74.1875 -69.679688 60.1875 -56.921875 L 51.328125 -43.859375 C 52.265625 -41.992188 52.734375 -39.660156 52.734375 -36.859375 C 52.109375 -35.304688 51.171875 -34.53125 49.921875 -34.53125 C 48.054688 -34.53125 47.125 -35.460938 47.125 -37.328125 C 47.125 -37.640625 47.125 -37.796875 47.125 -37.796875 C 43.707031 -31.890625 40.910156 -26.910156 38.734375 -22.859375 C 36.554688 -18.816406 35.46875 -15.707031 35.46875 -13.53125 C 35.46875 -7.9375 39.351562 -5.140625 47.125 -5.140625 C 52.726562 -5.140625 60.503906 -6.613281 70.453125 -9.5625 C 80.410156 -12.519531 91.144531 -16.640625 102.65625 -21.921875 C 114.164062 -27.210938 125.054688 -33.4375 135.328125 -40.59375 C 135.628906 -40.59375 135.859375 -40.671875 136.015625 -40.828125 C 136.171875 -40.984375 136.40625 -41.0625 136.71875 -41.0625 C 138.582031 -41.0625 139.515625 -40.128906 139.515625 -38.265625 C 139.515625 -37.328125 139.050781 -36.550781 138.125 -35.9375 C 127.539062 -28.78125 116.335938 -22.398438 104.515625 -16.796875 C 92.703125 -11.203125 81.660156 -6.925781 71.390625 -3.96875 C 61.128906 -1.007812 53.039062 0.46875 47.125 0.46875 Z M 78.859375 -82.125 C 95.035156 -97.675781 111.441406 -113.851562 128.078125 -130.65625 C 144.722656 -147.457031 159.96875 -163.242188 173.8125 -178.015625 C 187.65625 -192.796875 198.851562 -205.160156 207.40625 -215.109375 C 215.96875 -225.066406 220.25 -231.132812 220.25 -233.3125 C 220.25 -233.9375 219.78125 -234.25 218.84375 -234.25 C 216.351562 -234.25 211.53125 -231.132812 204.375 -224.90625 C 197.226562 -218.6875 188.675781 -210.285156 178.71875 -199.703125 C 168.757812 -189.128906 157.945312 -177.234375 146.28125 -164.015625 C 134.613281 -150.796875 122.945312 -137.109375 111.28125 -122.953125 C 99.625 -108.796875 88.816406 -95.1875 78.859375 -82.125 Z M -9.328125 -6.0625 C -6.835938 -6.0625 -1.160156 -9.71875 7.703125 -17.03125 C 16.566406 -24.34375 27.53125 -34.066406 40.59375 -46.203125 L 37.328125 -46.203125 C 31.421875 -46.203125 24.734375 -43.941406 17.265625 -39.421875 C 9.796875 -34.910156 3.265625 -29.625 -2.328125 -23.5625 C -7.929688 -17.5 -10.734375 -12.132812 -10.734375 -7.46875 C -10.734375 -6.53125 -10.265625 -6.0625 -9.328125 -6.0625 Z M -9.328125 -6.0625 "/></g></g><g style="fill:#000000;fill-opacity:1;"><g transform="translate(1318.978945, 560.781804)"><path style="stroke:none" d="M -1.859375 22.390625 C -7.148438 22.390625 -9.796875 20.367188 -9.796875 16.328125 C -9.796875 13.222656 -6.992188 9.878906 -1.390625 6.296875 C 4.203125 2.722656 10.882812 -0.769531 18.65625 -4.1875 C 26.4375 -7.613281 33.4375 -10.414062 39.65625 -12.59375 C 40.28125 -12.59375 40.59375 -12.75 40.59375 -13.0625 C 41.21875 -14.3125 41.914062 -15.476562 42.6875 -16.5625 C 43.46875 -17.65625 43.546875 -18.507812 42.921875 -19.125 C 42.617188 -19.75 40.363281 -19.828125 36.15625 -19.359375 C 31.957031 -18.898438 28.925781 -18.515625 27.0625 -18.203125 C 24.257812 -17.890625 21.535156 -17.5 18.890625 -17.03125 C 16.253906 -16.5625 13.691406 -16.328125 11.203125 -16.328125 C 3.734375 -16.328125 0 -18.816406 0 -23.796875 C 0 -28.460938 2.488281 -33.4375 7.46875 -38.71875 C 12.445312 -44.007812 18.359375 -48.597656 25.203125 -52.484375 C 32.046875 -56.378906 38.265625 -58.328125 43.859375 -58.328125 C 49.460938 -58.328125 52.265625 -55.992188 52.265625 -51.328125 C 52.265625 -50.390625 52.109375 -49.769531 51.796875 -49.46875 C 50.242188 -43.238281 46.976562 -38.726562 42 -35.9375 C 41.6875 -35.625 41.21875 -35.46875 40.59375 -35.46875 C 38.726562 -35.46875 37.796875 -36.398438 37.796875 -38.265625 C 37.796875 -39.503906 38.265625 -40.28125 39.203125 -40.59375 C 40.753906 -41.53125 42.382812 -43.085938 44.09375 -45.265625 C 45.800781 -47.441406 46.65625 -49.304688 46.65625 -50.859375 C 46.65625 -52.410156 45.722656 -53.1875 43.859375 -53.1875 C 39.191406 -53.1875 33.898438 -51.472656 27.984375 -48.046875 C 22.078125 -44.628906 16.867188 -40.664062 12.359375 -36.15625 C 7.847656 -31.644531 5.59375 -27.523438 5.59375 -23.796875 C 5.59375 -22.242188 7.460938 -21.46875 11.203125 -21.46875 C 13.378906 -21.46875 15.785156 -21.695312 18.421875 -22.15625 C 21.066406 -22.625 23.632812 -23.015625 26.125 -23.328125 C 28.613281 -23.953125 31.023438 -24.421875 33.359375 -24.734375 C 35.691406 -25.046875 37.789062 -25.203125 39.65625 -25.203125 C 45.570312 -25.203125 48.53125 -23.023438 48.53125 -18.671875 C 48.21875 -18.359375 48.0625 -18.046875 48.0625 -17.734375 C 48.0625 -17.421875 47.90625 -16.953125 47.59375 -16.328125 C 47.59375 -15.085938 47.90625 -14.78125 48.53125 -15.40625 C 54.125 -16.957031 60.109375 -18.742188 66.484375 -20.765625 C 72.867188 -22.785156 79.328125 -24.726562 85.859375 -26.59375 C 93.941406 -29.082031 102.023438 -31.492188 110.109375 -33.828125 C 118.203125 -36.160156 125.671875 -38.414062 132.515625 -40.59375 L 133.453125 -40.59375 C 135.003906 -40.59375 135.78125 -39.816406 135.78125 -38.265625 C 135.78125 -36.710938 135.160156 -35.78125 133.921875 -35.46875 C 127.078125 -33.289062 119.609375 -31.035156 111.515625 -28.703125 C 103.429688 -26.367188 95.347656 -23.957031 87.265625 -21.46875 C 79.484375 -19.289062 71.9375 -17.035156 64.625 -14.703125 C 57.3125 -12.367188 50.546875 -10.269531 44.328125 -8.40625 L 42.921875 -7.46875 C 38.265625 -0.625 31.578125 6.0625 22.859375 12.59375 C 14.148438 19.125 5.910156 22.390625 -1.859375 22.390625 Z M -1.859375 16.796875 C 3.421875 16.796875 9.25 14.851562 15.625 10.96875 C 22.007812 7.082031 27.535156 2.648438 32.203125 -2.328125 C 33.128906 -3.265625 32.816406 -3.734375 31.265625 -3.734375 C 21.617188 0.304688 13.21875 4.269531 6.0625 8.15625 C -1.09375 12.050781 -4.671875 14.617188 -4.671875 15.859375 C -4.671875 16.484375 -3.734375 16.796875 -1.859375 16.796875 Z M -1.859375 16.796875 "/></g></g></g></svg>