<svg xmlns="http://www.w3.org/2000/svg" xmlns:xlink="http://www.w3.org/1999/xlink" width="2240" zoomAndPan="magnify" viewBox="0 0 1680 944.999993" height="1260" preserveAspectRatio="xMidYMid meet" version="1.2"><defs/><g id="9b3af3c401"><g style="fill:#000000;fill-opacity:1;"><g transform="translate(27.582667, 589.459195)"><path style="stroke:none" d="M -3.78125 5.046875 C -11.757812 5.046875 -15.75 0.210938 -15.75 -9.453125 C -15.75 -18.273438 -12.070312 -27.410156 -4.71875 -36.859375 C 2.625 -46.304688 11.757812 -54.390625 22.6875 -61.109375 C 22.6875 -61.523438 22.789062 -61.734375 23 -61.734375 C 23.207031 -61.734375 23.3125 -61.945312 23.3125 -62.375 C 24.988281 -65.726562 27.085938 -66.988281 29.609375 -66.15625 C 30.453125 -65.726562 31.289062 -65.726562 32.125 -66.15625 C 35.070312 -67.832031 38.015625 -68.878906 40.953125 -69.296875 C 40.953125 -69.722656 41.375 -69.9375 42.21875 -69.9375 C 44.3125 -69.9375 45.359375 -68.675781 45.359375 -66.15625 C 45.359375 -64.050781 44.519531 -63 42.84375 -63 C 42.425781 -62.582031 42.003906 -62.375 41.578125 -62.375 C 41.160156 -62.375 40.742188 -62.160156 40.328125 -61.734375 C 39.066406 -61.316406 39.066406 -60.6875 40.328125 -59.84375 C 57.546875 -49.769531 76.128906 -44.207031 96.078125 -43.15625 C 116.023438 -42.101562 133.5625 -45.988281 148.6875 -54.8125 L 150.578125 -54.8125 C 153.097656 -54.8125 154.359375 -53.757812 154.359375 -51.65625 C 154.359375 -50.394531 153.515625 -49.347656 151.828125 -48.515625 C 135.453125 -39.273438 116.34375 -35.175781 94.5 -36.21875 C 72.65625 -37.269531 52.492188 -43.46875 34.015625 -54.8125 C 32.753906 -56.070312 32.125 -55.648438 32.125 -53.546875 C 33.382812 -45.566406 32.332031 -36.957031 28.96875 -27.71875 C 25.613281 -18.476562 20.992188 -10.707031 15.109375 -4.40625 C 9.234375 1.894531 2.9375 5.046875 -3.78125 5.046875 Z M -3.78125 -1.890625 C 1.257812 -1.890625 6.191406 -4.828125 11.015625 -10.703125 C 15.847656 -16.585938 19.734375 -23.625 22.671875 -31.8125 C 25.617188 -40 26.460938 -47.457031 25.203125 -54.1875 C 15.535156 -48.300781 7.445312 -41.15625 0.9375 -32.75 C -5.5625 -24.351562 -8.8125 -16.585938 -8.8125 -9.453125 C -8.8125 -4.410156 -7.132812 -1.890625 -3.78125 -1.890625 Z M -3.78125 -1.890625 "/></g></g><g style="fill:#000000;fill-opacity:1;"><g transform="translate(163.666806, 589.459195)"><path style="stroke:none" d="M -132.9375 160.03125 C -136.71875 160.03125 -137.976562 157.925781 -136.71875 153.71875 L -136.078125 153.09375 C -135.660156 152.25 -135.347656 151.507812 -135.140625 150.875 C -134.929688 150.25 -134.613281 149.726562 -134.1875 149.3125 C -103.945312 101.851562 -70.238281 53.757812 -33.0625 5.03125 C 4.101562 -43.6875 42.425781 -91.351562 81.90625 -137.96875 C 55.019531 -136.707031 28.660156 -135.023438 2.828125 -132.921875 C -22.992188 -130.828125 -47.664062 -128.101562 -71.1875 -124.75 L -71.828125 -124.75 C -74.347656 -124.75 -75.609375 -126.003906 -75.609375 -128.515625 C -75.609375 -130.203125 -74.554688 -131.460938 -72.453125 -132.296875 C -47.671875 -135.660156 -21.738281 -138.390625 5.34375 -140.484375 C 32.4375 -142.585938 60.054688 -144.0625 88.203125 -144.90625 C 105.835938 -165.90625 123.582031 -186.378906 141.4375 -206.328125 C 159.289062 -226.273438 177.035156 -245.910156 194.671875 -265.234375 C 195.515625 -266.078125 196.351562 -266.5 197.1875 -266.5 C 199.707031 -266.5 200.96875 -265.238281 200.96875 -262.71875 C 200.96875 -261.457031 200.757812 -260.617188 200.34375 -260.203125 C 183.539062 -242.140625 166.632812 -223.445312 149.625 -204.125 C 132.613281 -184.800781 115.5 -165.269531 98.28125 -145.53125 C 151.207031 -147.632812 203.921875 -147.632812 256.421875 -145.53125 C 258.515625 -145.53125 259.5625 -144.269531 259.5625 -141.75 C 259.5625 -139.65625 258.300781 -138.609375 255.78125 -138.609375 C 228.90625 -139.441406 201.601562 -139.859375 173.875 -139.859375 C 146.15625 -139.859375 118.648438 -139.226562 91.359375 -137.96875 C 52.296875 -92.1875 14.285156 -45.253906 -22.671875 2.828125 C -59.640625 50.921875 -93.035156 98.488281 -122.859375 145.53125 C -121.171875 146.375 -121.171875 147.84375 -122.859375 149.9375 C -124.535156 152.457031 -126.210938 154.769531 -127.890625 156.875 C -129.566406 158.976562 -131.25 160.03125 -132.9375 160.03125 Z M -132.9375 160.03125 "/></g></g><g style="fill:#000000;fill-opacity:1;"><g transform="translate(257.53964, 589.459195)"><path style="stroke:none" d="M -38.4375 37.796875 C -41.789062 37.796875 -43.46875 36.117188 -43.46875 32.765625 C -43.46875 27.304688 -38.425781 16.804688 -28.34375 1.265625 C -18.269531 -14.273438 -4.832031 -32.753906 11.96875 -54.171875 C 28.769531 -75.597656 47.457031 -98.382812 68.03125 -122.53125 C 88.613281 -146.6875 109.507812 -170.421875 130.71875 -193.734375 C 151.9375 -217.046875 171.992188 -238.253906 190.890625 -257.359375 C 209.796875 -276.472656 226.070312 -291.695312 239.71875 -303.03125 C 253.375 -314.375 262.71875 -320.046875 267.75 -320.046875 C 274.894531 -320.046875 278.46875 -316.476562 278.46875 -309.34375 C 278.46875 -303.039062 273.738281 -292.75 264.28125 -278.46875 C 254.832031 -264.1875 241.8125 -247.59375 225.21875 -228.6875 C 208.632812 -209.789062 189.316406 -189.738281 167.265625 -168.53125 C 145.210938 -147.320312 121.375 -126.425781 95.75 -105.84375 C 70.132812 -85.257812 43.890625 -66.359375 17.015625 -49.140625 C 6.929688 -36.117188 -1.992188 -24.253906 -9.765625 -13.546875 C -17.535156 -2.835938 -23.726562 6.296875 -28.34375 13.859375 C -30.863281 18.054688 -31.492188 20.15625 -30.234375 20.15625 C -28.972656 20.15625 -26.875 18.476562 -23.9375 15.125 C -19.738281 10.914062 -15.117188 6.394531 -10.078125 1.5625 C -5.035156 -3.257812 0.210938 -8.191406 5.671875 -13.234375 C 42.628906 -48.085938 67.410156 -65.515625 80.015625 -65.515625 C 85.890625 -65.515625 88.828125 -62.367188 88.828125 -56.078125 C 88.828125 -53.128906 88.195312 -49.765625 86.9375 -45.984375 C 85.675781 -42.210938 84.207031 -38.4375 82.53125 -34.65625 C 81.269531 -30.875 80.007812 -27.300781 78.75 -23.9375 C 77.488281 -20.582031 76.859375 -17.644531 76.859375 -15.125 C 76.859375 -7.976562 81.476562 -4.40625 90.71875 -4.40625 C 99.957031 -4.40625 112.03125 -7.132812 126.9375 -12.59375 C 141.851562 -18.0625 156.976562 -24.675781 172.3125 -32.4375 C 187.644531 -40.207031 200.769531 -47.664062 211.6875 -54.8125 L 213.578125 -54.8125 C 216.097656 -54.8125 217.359375 -53.757812 217.359375 -51.65625 C 217.359375 -50.394531 216.726562 -49.347656 215.46875 -48.515625 C 204.539062 -41.367188 191.203125 -33.804688 175.453125 -25.828125 C 159.703125 -17.847656 144.160156 -11.019531 128.828125 -5.34375 C 113.503906 0.320312 100.800781 3.15625 90.71875 3.15625 C 76.863281 3.15625 69.9375 -2.9375 69.9375 -15.125 C 69.9375 -18.476562 70.566406 -22.148438 71.828125 -26.140625 C 73.085938 -30.128906 74.554688 -34.015625 76.234375 -37.796875 C 77.492188 -41.160156 78.753906 -44.519531 80.015625 -47.875 C 81.273438 -51.238281 81.90625 -53.972656 81.90625 -56.078125 C 81.90625 -57.753906 81.273438 -58.59375 80.015625 -58.59375 C 69.515625 -58.59375 46.410156 -41.789062 10.703125 -8.1875 C 5.242188 -2.726562 0 2.410156 -5.03125 7.234375 C -10.070312 12.066406 -14.695312 16.375 -18.90625 20.15625 C -23.519531 25.195312 -27.613281 29.394531 -31.1875 32.75 C -34.757812 36.113281 -37.175781 37.796875 -38.4375 37.796875 Z M 31.5 -66.78125 C 56.695312 -84 81.160156 -102.476562 104.890625 -122.21875 C 128.628906 -141.957031 150.578125 -161.59375 170.734375 -181.125 C 190.890625 -200.65625 208.53125 -219.132812 223.65625 -236.5625 C 238.78125 -254 250.539062 -269.117188 258.9375 -281.921875 C 267.332031 -294.734375 271.53125 -303.875 271.53125 -309.34375 C 271.53125 -311.4375 270.269531 -312.484375 267.75 -312.484375 C 263.550781 -312.484375 255.46875 -307.335938 243.5 -297.046875 C 231.53125 -286.753906 217.039062 -273 200.03125 -255.78125 C 183.019531 -238.5625 164.644531 -219.238281 144.90625 -197.8125 C 125.164062 -176.394531 105.53125 -154.347656 86 -131.671875 C 66.46875 -108.992188 48.300781 -87.363281 31.5 -66.78125 Z M 31.5 -66.78125 "/></g></g><g style="fill:#000000;fill-opacity:1;"><g transform="translate(456.625736, 589.459195)"><path style="stroke:none" d="M 20.796875 1.890625 C 11.554688 1.890625 4.3125 0.210938 -0.9375 -3.140625 C -6.1875 -6.503906 -8.8125 -11.335938 -8.8125 -17.640625 C -8.8125 -24.773438 -5.875 -32.332031 0 -40.3125 C 5.875 -48.300781 12.90625 -55.234375 21.09375 -61.109375 C 29.289062 -66.992188 36.75 -69.9375 43.46875 -69.9375 C 51.03125 -69.9375 54.8125 -66.570312 54.8125 -59.84375 C 54.8125 -55.644531 51.972656 -51.65625 46.296875 -47.875 C 40.628906 -44.101562 34.859375 -42.21875 28.984375 -42.21875 C 21.835938 -42.21875 16.585938 -43.054688 13.234375 -44.734375 C 9.035156 -40.535156 5.566406 -36.019531 2.828125 -31.1875 C 0.0976562 -26.351562 -1.265625 -21.835938 -1.265625 -17.640625 C -1.265625 -9.660156 6.085938 -5.671875 20.796875 -5.671875 C 27.085938 -5.671875 36.953125 -7.5625 50.390625 -11.34375 C 63.835938 -15.125 78.851562 -20.582031 95.4375 -27.71875 C 112.03125 -34.863281 127.46875 -43.6875 141.75 -54.1875 C 142.175781 -54.601562 142.804688 -54.8125 143.640625 -54.8125 C 146.160156 -54.8125 147.421875 -53.757812 147.421875 -51.65625 C 147.421875 -50.394531 146.789062 -49.347656 145.53125 -48.515625 C 130.832031 -37.585938 115.082031 -28.34375 98.28125 -20.78125 C 81.476562 -13.226562 66.039062 -7.5625 51.96875 -3.78125 C 37.90625 0 27.515625 1.890625 20.796875 1.890625 Z M 28.984375 -49.140625 C 32.335938 -49.140625 36.320312 -50.503906 40.9375 -53.234375 C 45.5625 -55.960938 47.875 -58.164062 47.875 -59.84375 C 47.875 -61.53125 46.40625 -62.375 43.46875 -62.375 C 39.6875 -62.375 35.695312 -61.21875 31.5 -58.90625 C 27.300781 -56.59375 23.101562 -53.757812 18.90625 -50.40625 C 20.164062 -49.976562 21.632812 -49.660156 23.3125 -49.453125 C 24.988281 -49.242188 26.878906 -49.140625 28.984375 -49.140625 Z M 28.984375 -49.140625 "/></g></g><g style="fill:#000000;fill-opacity:1;"><g transform="translate(585.779708, 589.459195)"><path style="stroke:none" d="M 8.1875 68.046875 C -3.144531 68.046875 -8.8125 62.582031 -8.8125 51.65625 C -8.8125 44.519531 -5.5625 36.222656 0.9375 26.765625 C 7.445312 17.316406 15.742188 7.453125 25.828125 -2.828125 C 35.910156 -13.117188 45.992188 -23.515625 56.078125 -34.015625 C 69.515625 -47.460938 81.484375 -59.851562 91.984375 -71.1875 C 102.484375 -82.53125 107.734375 -91.140625 107.734375 -97.015625 C 107.734375 -100.796875 102.0625 -106.675781 90.71875 -114.65625 C 78.957031 -102.476562 66.460938 -90.507812 53.234375 -78.75 C 40.003906 -66.988281 27.71875 -56.910156 16.375 -48.515625 C 15.957031 -48.085938 15.117188 -47.875 13.859375 -47.875 C 11.753906 -47.875 10.703125 -49.132812 10.703125 -51.65625 C 10.703125 -52.5 11.125 -53.34375 11.96875 -54.1875 C 24.570312 -63.425781 37.171875 -73.710938 49.765625 -85.046875 C 62.367188 -96.390625 73.921875 -107.519531 84.421875 -118.4375 C 78.960938 -122.21875 74.65625 -125.367188 71.5 -127.890625 C 68.351562 -130.410156 66.78125 -133.140625 66.78125 -136.078125 C 66.78125 -139.859375 69.085938 -144.582031 73.703125 -150.25 C 78.328125 -155.925781 84.101562 -161.390625 91.03125 -166.640625 C 97.96875 -171.890625 105.003906 -176.296875 112.140625 -179.859375 C 119.285156 -183.429688 125.375 -185.21875 130.40625 -185.21875 C 135.03125 -185.21875 137.34375 -182.703125 137.34375 -177.671875 C 137.34375 -173.460938 133.457031 -166.003906 125.6875 -155.296875 C 117.914062 -144.585938 107.941406 -132.722656 95.765625 -119.703125 C 101.222656 -114.660156 105.84375 -110.5625 109.625 -107.40625 C 113.40625 -104.257812 115.296875 -100.796875 115.296875 -97.015625 C 115.296875 -89.460938 109.625 -79.488281 98.28125 -67.09375 C 86.9375 -54.707031 74.546875 -41.789062 61.109375 -28.34375 C 51.023438 -18.269531 41.15625 -8.300781 31.5 1.5625 C 21.84375 11.4375 13.863281 20.679688 7.5625 29.296875 C 1.257812 37.910156 -1.890625 45.363281 -1.890625 51.65625 C -1.890625 57.539062 1.46875 60.484375 8.1875 60.484375 C 17.007812 60.484375 29.710938 56.703125 46.296875 49.140625 C 62.890625 41.578125 81.160156 31.914062 101.109375 20.15625 C 121.066406 8.394531 141.019531 -4.097656 160.96875 -17.328125 C 180.914062 -30.554688 198.660156 -42.84375 214.203125 -54.1875 C 214.617188 -54.601562 215.25 -54.8125 216.09375 -54.8125 C 218.613281 -54.8125 219.875 -53.757812 219.875 -51.65625 C 219.875 -50.394531 219.453125 -49.347656 218.609375 -48.515625 C 203.078125 -37.171875 185.226562 -24.78125 165.0625 -11.34375 C 144.90625 2.09375 124.535156 14.796875 103.953125 26.765625 C 83.367188 38.742188 64.675781 48.617188 47.875 56.390625 C 31.082031 64.160156 17.851562 68.046875 8.1875 68.046875 Z M 89.46875 -123.484375 C 94.082031 -128.097656 99.222656 -133.765625 104.890625 -140.484375 C 110.566406 -147.210938 115.816406 -153.722656 120.640625 -160.015625 C 125.472656 -166.316406 128.519531 -171.148438 129.78125 -174.515625 C 130.625 -177.035156 129.785156 -177.875 127.265625 -177.03125 C 121.804688 -176.195312 114.875 -173.046875 106.46875 -167.578125 C 98.070312 -162.117188 90.617188 -156.445312 84.109375 -150.5625 C 77.597656 -144.6875 74.34375 -139.859375 74.34375 -136.078125 C 74.34375 -135.660156 75.492188 -134.398438 77.796875 -132.296875 C 80.109375 -130.203125 84 -127.265625 89.46875 -123.484375 Z M 89.46875 -123.484375 "/></g></g><g style="fill:#000000;fill-opacity:1;"><g transform="translate(788.015825, 589.459195)"><path style="stroke:none" d="M -17.640625 3.78125 C -21.421875 2.9375 -23.3125 0.835938 -23.3125 -2.515625 C -23.3125 -5.460938 -20.472656 -11.238281 -14.796875 -19.84375 C -9.128906 -28.457031 -2.097656 -37.695312 6.296875 -47.5625 C 14.703125 -57.4375 22.472656 -65.734375 29.609375 -72.453125 C 30.023438 -72.867188 30.863281 -73.078125 32.125 -73.078125 C 34.644531 -73.078125 35.90625 -71.816406 35.90625 -69.296875 C 35.90625 -68.460938 35.488281 -67.625 34.65625 -66.78125 C 24.570312 -57.539062 15.328125 -47.671875 6.921875 -37.171875 C -1.472656 -26.671875 -7.5625 -18.0625 -11.34375 -11.34375 C -12.175781 -10.082031 -12.171875 -9.238281 -11.328125 -8.8125 C -10.492188 -8.394531 -9.65625 -8.394531 -8.8125 -8.8125 C -5.457031 -10.914062 -1.472656 -13.859375 3.140625 -17.640625 C 7.765625 -21.421875 13.4375 -26.039062 20.15625 -31.5 C 43.675781 -50.820312 61.210938 -64.367188 72.765625 -72.140625 C 84.316406 -79.910156 93.03125 -83.796875 98.90625 -83.796875 C 107.726562 -83.796875 112.140625 -80.644531 112.140625 -74.34375 C 112.140625 -68.882812 105.421875 -55.863281 91.984375 -35.28125 L 82.53125 -20.15625 C 81.6875 -18.894531 81.578125 -17.945312 82.203125 -17.3125 C 82.835938 -16.6875 83.785156 -16.585938 85.046875 -17.015625 L 98.90625 -25.828125 C 106.050781 -30.023438 113.507812 -34.117188 121.28125 -38.109375 C 129.050781 -42.097656 135.035156 -44.09375 139.234375 -44.09375 C 144.691406 -44.09375 147.421875 -41.15625 147.421875 -35.28125 C 147.421875 -33.601562 147.316406 -31.921875 147.109375 -30.234375 C 146.898438 -28.554688 146.796875 -26.878906 146.796875 -25.203125 C 146.367188 -23.523438 146.050781 -21.632812 145.84375 -19.53125 C 145.632812 -17.425781 145.53125 -15.328125 145.53125 -13.234375 C 145.53125 -9.867188 148.472656 -8.1875 154.359375 -8.1875 C 162.335938 -8.1875 173.253906 -11.753906 187.109375 -18.890625 C 200.972656 -26.035156 219.875 -37.800781 243.8125 -54.1875 C 244.238281 -54.601562 244.867188 -54.8125 245.703125 -54.8125 C 248.222656 -54.8125 249.484375 -53.757812 249.484375 -51.65625 C 249.484375 -50.394531 248.851562 -49.347656 247.59375 -48.515625 C 223.238281 -31.710938 203.8125 -19.632812 189.3125 -12.28125 C 174.820312 -4.9375 163.171875 -1.265625 154.359375 -1.265625 C 143.859375 -1.265625 138.609375 -5.253906 138.609375 -13.234375 C 138.609375 -15.328125 138.609375 -17.53125 138.609375 -19.84375 C 138.609375 -22.15625 138.816406 -24.148438 139.234375 -25.828125 C 139.648438 -27.929688 139.960938 -29.71875 140.171875 -31.1875 C 140.390625 -32.65625 140.5 -34.019531 140.5 -35.28125 C 140.5 -36.539062 139.65625 -37.171875 137.96875 -37.171875 C 135.875 -37.171875 132.203125 -35.910156 126.953125 -33.390625 C 121.703125 -30.867188 113.613281 -26.25 102.6875 -19.53125 C 94.289062 -14.070312 88.203125 -10.394531 84.421875 -8.5 C 80.640625 -6.613281 77.703125 -5.671875 75.609375 -5.671875 C 72.660156 -5.671875 71.1875 -7.5625 71.1875 -11.34375 C 71.1875 -13.4375 72.234375 -16.476562 74.328125 -20.46875 C 76.429688 -24.457031 80.425781 -30.65625 86.3125 -39.0625 C 93.03125 -49.5625 97.753906 -57.4375 100.484375 -62.6875 C 103.210938 -67.9375 104.578125 -71.613281 104.578125 -73.71875 C 104.578125 -75.8125 103.316406 -76.859375 100.796875 -76.859375 C 95.765625 -76.859375 89.046875 -74.234375 80.640625 -68.984375 C 72.242188 -63.734375 63.210938 -57.222656 53.546875 -49.453125 C 43.890625 -41.679688 34.234375 -34.015625 24.578125 -26.453125 C 10.296875 -14.691406 0.320312 -6.710938 -5.34375 -2.515625 C -11.019531 1.679688 -15.117188 3.78125 -17.640625 3.78125 Z M -17.640625 3.78125 "/></g></g><g style="fill:#000000;fill-opacity:1;"><g transform="translate(1019.862898, 589.459195)"><path style="stroke:none" d="M 45.359375 -81.265625 C 42.835938 -81.265625 41.578125 -82.316406 41.578125 -84.421875 C 41.578125 -85.679688 41.789062 -86.519531 42.21875 -86.9375 L 44.734375 -89.46875 C 45.566406 -90.726562 46.613281 -92.195312 47.875 -93.875 C 49.132812 -95.550781 49.976562 -96.8125 50.40625 -97.65625 C 51.238281 -98.488281 52.285156 -98.90625 53.546875 -98.90625 C 55.648438 -98.90625 56.703125 -97.644531 56.703125 -95.125 C 56.703125 -93.875 56.492188 -93.035156 56.078125 -92.609375 C 54.390625 -90.929688 52.5 -88.410156 50.40625 -85.046875 L 47.875 -82.53125 C 47.457031 -81.6875 46.617188 -81.265625 45.359375 -81.265625 Z M 5.046875 3.78125 C -6.296875 3.78125 -11.96875 -1.675781 -11.96875 -12.59375 C -11.96875 -18.476562 -8.503906 -26.566406 -1.578125 -36.859375 C 5.347656 -47.148438 14.691406 -58.175781 26.453125 -69.9375 C 26.878906 -70.351562 27.722656 -70.5625 28.984375 -70.5625 C 31.503906 -70.5625 32.765625 -69.507812 32.765625 -67.40625 C 32.765625 -66.570312 32.34375 -65.734375 31.5 -64.890625 C 21 -53.972656 12.28125 -43.679688 5.34375 -34.015625 C -1.582031 -24.359375 -5.046875 -17.21875 -5.046875 -12.59375 C -5.046875 -6.71875 -1.679688 -3.78125 5.046875 -3.78125 C 10.078125 -3.78125 17.316406 -5.351562 26.765625 -8.5 C 36.222656 -11.65625 46.832031 -15.859375 58.59375 -21.109375 C 70.351562 -26.359375 81.898438 -31.921875 93.234375 -37.796875 C 104.578125 -43.679688 114.238281 -49.351562 122.21875 -54.8125 L 124.109375 -54.8125 C 126.628906 -54.8125 127.890625 -53.757812 127.890625 -51.65625 C 127.890625 -50.394531 127.472656 -49.347656 126.640625 -48.515625 C 118.234375 -43.054688 108.253906 -37.28125 96.703125 -31.1875 C 85.148438 -25.09375 73.285156 -19.421875 61.109375 -14.171875 C 48.929688 -8.921875 37.90625 -4.613281 28.03125 -1.25 C 18.164062 2.101562 10.503906 3.78125 5.046875 3.78125 Z M 5.046875 3.78125 "/></g></g><g style="fill:#000000;fill-opacity:1;"><g transform="translate(1130.116203, 589.459195)"><path style="stroke:none" d="M -17.640625 0 C -21.835938 0 -23.519531 -2.3125 -22.6875 -6.9375 C -22.257812 -9.03125 -19.628906 -13.539062 -14.796875 -20.46875 C -9.972656 -27.40625 -3.78125 -35.390625 3.78125 -44.421875 C 11.34375 -53.453125 19.640625 -62.691406 28.671875 -72.140625 C 37.703125 -81.585938 46.835938 -89.671875 56.078125 -96.390625 C 56.492188 -96.804688 57.332031 -97.015625 58.59375 -97.015625 C 60.6875 -97.015625 61.734375 -95.96875 61.734375 -93.875 C 61.734375 -92.613281 61.316406 -91.5625 60.484375 -90.71875 C 47.878906 -81.476562 35.488281 -69.925781 23.3125 -56.0625 C 11.132812 -42.207031 1.472656 -30.453125 -5.671875 -20.796875 C -6.085938 -19.953125 -6.191406 -19.109375 -5.984375 -18.265625 C -5.773438 -17.429688 -4.832031 -17.429688 -3.15625 -18.265625 C 45.570312 -53.546875 77.492188 -71.1875 92.609375 -71.1875 C 99.328125 -71.1875 102.6875 -68.25 102.6875 -62.375 C 102.6875 -59.4375 102.160156 -55.65625 101.109375 -51.03125 C 100.066406 -46.40625 99.125 -41.785156 98.28125 -37.171875 C 95.757812 -29.191406 94.5 -23.101562 94.5 -18.90625 C 94.5 -15.539062 96.8125 -13.859375 101.4375 -13.859375 C 111.9375 -13.859375 126.003906 -17.53125 143.640625 -24.875 C 161.285156 -32.226562 179.554688 -42.207031 198.453125 -54.8125 L 200.34375 -54.8125 C 202.863281 -54.8125 204.125 -53.757812 204.125 -51.65625 C 204.125 -50.394531 203.492188 -49.347656 202.234375 -48.515625 C 182.910156 -35.910156 164.113281 -25.828125 145.84375 -18.265625 C 127.570312 -10.710938 112.769531 -6.9375 101.4375 -6.9375 C 91.769531 -6.9375 86.9375 -10.925781 86.9375 -18.90625 C 86.9375 -21 87.359375 -23.832031 88.203125 -27.40625 C 89.046875 -30.976562 89.882812 -34.863281 90.71875 -39.0625 C 91.976562 -43.675781 93.132812 -48.082031 94.1875 -52.28125 C 95.238281 -56.488281 95.765625 -59.429688 95.765625 -61.109375 C 95.765625 -63.210938 94.710938 -64.265625 92.609375 -64.265625 C 85.890625 -64.265625 76.648438 -61.007812 64.890625 -54.5 C 53.128906 -47.988281 41.15625 -40.425781 28.96875 -31.8125 C 16.789062 -23.207031 6.503906 -15.960938 -1.890625 -10.078125 C -5.671875 -7.554688 -8.925781 -5.242188 -11.65625 -3.140625 C -14.382812 -1.046875 -16.378906 0 -17.640625 0 Z M -17.640625 0 "/></g></g><g style="fill:#000000;fill-opacity:1;"><g transform="translate(1315.971993, 589.459195)"><path style="stroke:none" d="M 63.625 0.625 C 48.507812 0.625 40.953125 -5.671875 40.953125 -18.265625 C 40.953125 -23.722656 45.570312 -34.015625 54.8125 -49.140625 C 55.65625 -50.398438 55.863281 -51.238281 55.4375 -51.65625 C 55.019531 -52.082031 54.179688 -51.875 52.921875 -51.03125 C 36.535156 -35.90625 22.671875 -23.722656 11.328125 -14.484375 C -0.00390625 -5.242188 -8.398438 -0.625 -13.859375 -0.625 C -19.316406 -0.625 -22.046875 -3.566406 -22.046875 -9.453125 C -22.046875 -17.429688 -17.953125 -26.039062 -9.765625 -35.28125 C -1.578125 -44.519531 8.1875 -52.601562 19.53125 -59.53125 C 30.875 -66.46875 41.164062 -69.9375 50.40625 -69.9375 C 55.019531 -69.9375 58.378906 -69.09375 60.484375 -67.40625 C 63.421875 -70.351562 66.359375 -73.082031 69.296875 -75.59375 C 72.242188 -78.113281 75.1875 -80.847656 78.125 -83.796875 C 91.144531 -101.847656 106.160156 -121.691406 123.171875 -143.328125 C 140.179688 -164.960938 157.820312 -186.382812 176.09375 -207.59375 C 194.363281 -228.800781 211.6875 -248.117188 228.0625 -265.546875 C 244.445312 -282.984375 258.625 -296.953125 270.59375 -307.453125 C 282.5625 -317.953125 290.859375 -323.203125 295.484375 -323.203125 C 301.359375 -323.203125 304.296875 -320.46875 304.296875 -315 C 304.296875 -311.644531 299.675781 -304.085938 290.4375 -292.328125 C 281.195312 -280.566406 268.703125 -266.179688 252.953125 -249.171875 C 237.203125 -232.160156 219.664062 -213.570312 200.34375 -193.40625 C 181.019531 -173.25 161.066406 -153.085938 140.484375 -132.921875 C 119.910156 -112.765625 100.171875 -94.078125 81.265625 -76.859375 L 69.296875 -59.21875 C 70.554688 -56.695312 71.1875 -53.546875 71.1875 -49.765625 C 70.351562 -47.671875 69.09375 -46.625 67.40625 -46.625 C 64.882812 -46.625 63.625 -47.882812 63.625 -50.40625 C 63.625 -50.820312 63.625 -51.03125 63.625 -51.03125 C 59.007812 -43.050781 55.226562 -36.332031 52.28125 -30.875 C 49.34375 -25.414062 47.875 -21.210938 47.875 -18.265625 C 47.875 -10.710938 53.125 -6.9375 63.625 -6.9375 C 71.1875 -6.9375 81.6875 -8.929688 95.125 -12.921875 C 108.570312 -16.910156 123.0625 -22.472656 138.59375 -29.609375 C 154.132812 -36.753906 168.835938 -45.15625 182.703125 -54.8125 C 183.117188 -54.8125 183.429688 -54.914062 183.640625 -55.125 C 183.859375 -55.332031 184.175781 -55.4375 184.59375 -55.4375 C 187.113281 -55.4375 188.375 -54.175781 188.375 -51.65625 C 188.375 -50.394531 187.742188 -49.347656 186.484375 -48.515625 C 172.203125 -38.847656 157.082031 -30.234375 141.125 -22.671875 C 125.164062 -15.117188 110.253906 -9.347656 96.390625 -5.359375 C 82.535156 -1.367188 71.613281 0.625 63.625 0.625 Z M 106.46875 -110.875 C 128.3125 -131.882812 150.46875 -153.726562 172.9375 -176.40625 C 195.40625 -199.082031 215.984375 -220.394531 234.671875 -240.34375 C 253.367188 -260.300781 268.492188 -277 280.046875 -290.4375 C 291.597656 -303.875 297.375 -312.0625 297.375 -315 C 297.375 -315.84375 296.742188 -316.265625 295.484375 -316.265625 C 292.117188 -316.265625 285.601562 -312.0625 275.9375 -303.65625 C 266.28125 -295.257812 254.734375 -283.921875 241.296875 -269.640625 C 227.859375 -255.359375 213.265625 -239.289062 197.515625 -221.4375 C 181.765625 -203.59375 166.015625 -185.113281 150.265625 -166 C 134.515625 -146.894531 119.914062 -128.519531 106.46875 -110.875 Z M -12.59375 -8.1875 C -9.238281 -8.1875 -1.578125 -13.117188 10.390625 -22.984375 C 22.359375 -32.859375 37.164062 -45.988281 54.8125 -62.375 L 50.40625 -62.375 C 42.425781 -62.375 33.394531 -59.328125 23.3125 -53.234375 C 13.226562 -47.140625 4.410156 -40 -3.140625 -31.8125 C -10.703125 -23.625 -14.484375 -16.378906 -14.484375 -10.078125 C -14.484375 -8.816406 -13.851562 -8.1875 -12.59375 -8.1875 Z M -12.59375 -8.1875 "/></g></g><g style="fill:#000000;fill-opacity:1;"><g transform="translate(1486.707122, 589.459195)"><path style="stroke:none" d="M -2.515625 30.234375 C -9.660156 30.234375 -13.234375 27.503906 -13.234375 22.046875 C -13.234375 17.847656 -9.453125 13.332031 -1.890625 8.5 C 5.671875 3.675781 14.703125 -1.039062 25.203125 -5.65625 C 35.703125 -10.28125 45.148438 -14.066406 53.546875 -17.015625 C 54.390625 -17.015625 54.8125 -17.222656 54.8125 -17.640625 C 55.65625 -19.316406 56.597656 -20.890625 57.640625 -22.359375 C 58.691406 -23.835938 58.800781 -24.992188 57.96875 -25.828125 C 57.539062 -26.671875 54.492188 -26.773438 48.828125 -26.140625 C 43.160156 -25.515625 39.066406 -24.992188 36.546875 -24.578125 C 32.765625 -24.148438 29.085938 -23.617188 25.515625 -22.984375 C 21.941406 -22.359375 18.476562 -22.046875 15.125 -22.046875 C 5.039062 -22.046875 0 -25.40625 0 -32.125 C 0 -38.425781 3.359375 -45.144531 10.078125 -52.28125 C 16.796875 -59.425781 24.773438 -65.625 34.015625 -70.875 C 43.253906 -76.125 51.65625 -78.75 59.21875 -78.75 C 66.78125 -78.75 70.5625 -75.597656 70.5625 -69.296875 C 70.5625 -68.035156 70.351562 -67.195312 69.9375 -66.78125 C 67.832031 -58.382812 63.421875 -52.296875 56.703125 -48.515625 C 56.285156 -48.085938 55.65625 -47.875 54.8125 -47.875 C 52.289062 -47.875 51.03125 -49.132812 51.03125 -51.65625 C 51.03125 -53.34375 51.660156 -54.394531 52.921875 -54.8125 C 55.023438 -56.070312 57.226562 -58.171875 59.53125 -61.109375 C 61.84375 -64.046875 63 -66.566406 63 -68.671875 C 63 -70.773438 61.738281 -71.828125 59.21875 -71.828125 C 52.914062 -71.828125 45.773438 -69.515625 37.796875 -64.890625 C 29.816406 -60.273438 22.78125 -54.921875 16.6875 -48.828125 C 10.601562 -42.734375 7.5625 -37.164062 7.5625 -32.125 C 7.5625 -30.03125 10.082031 -28.984375 15.125 -28.984375 C 18.0625 -28.984375 21.3125 -29.296875 24.875 -29.921875 C 28.445312 -30.554688 31.914062 -31.082031 35.28125 -31.5 C 38.644531 -32.34375 41.898438 -32.972656 45.046875 -33.390625 C 48.191406 -33.804688 51.023438 -34.015625 53.546875 -34.015625 C 61.523438 -34.015625 65.515625 -31.078125 65.515625 -25.203125 C 65.097656 -24.785156 64.890625 -24.363281 64.890625 -23.9375 C 64.890625 -23.519531 64.679688 -22.890625 64.265625 -22.046875 C 64.265625 -20.367188 64.679688 -19.953125 65.515625 -20.796875 C 73.078125 -22.890625 81.160156 -25.300781 89.765625 -28.03125 C 98.378906 -30.757812 107.097656 -33.382812 115.921875 -35.90625 C 126.835938 -39.269531 137.753906 -42.523438 148.671875 -45.671875 C 159.597656 -48.828125 169.679688 -51.875 178.921875 -54.8125 L 180.1875 -54.8125 C 182.28125 -54.8125 183.328125 -53.757812 183.328125 -51.65625 C 183.328125 -49.5625 182.488281 -48.300781 180.8125 -47.875 C 171.570312 -44.9375 161.488281 -41.890625 150.5625 -38.734375 C 139.644531 -35.585938 128.726562 -32.335938 117.8125 -28.984375 C 107.3125 -26.046875 97.125 -23 87.25 -19.84375 C 77.382812 -16.695312 68.25 -13.863281 59.84375 -11.34375 L 57.96875 -10.078125 C 51.664062 -0.835938 42.632812 8.1875 30.875 17 C 19.113281 25.820312 7.984375 30.234375 -2.515625 30.234375 Z M -2.515625 22.6875 C 4.617188 22.6875 12.488281 20.0625 21.09375 14.8125 C 29.707031 9.5625 37.164062 3.570312 43.46875 -3.15625 C 44.726562 -4.414062 44.3125 -5.046875 42.21875 -5.046875 C 29.195312 0.421875 17.851562 5.78125 8.1875 11.03125 C -1.46875 16.28125 -6.296875 19.742188 -6.296875 21.421875 C -6.296875 22.265625 -5.035156 22.6875 -2.515625 22.6875 Z M -2.515625 22.6875 "/></g></g></g></svg>