<svg xmlns="http://www.w3.org/2000/svg" xmlns:xlink="http://www.w3.org/1999/xlink" width="2240" zoomAndPan="magnify" viewBox="0 0 1680 944.999993" height="1260" preserveAspectRatio="xMidYMid meet" version="1.2"><defs/><g id="312afa71a3"><g style="fill:#000000;fill-opacity:1;"><g transform="translate(94.500002, 579.825538)"><path style="stroke:none" d="M -3.46875 4.625 C -10.789062 4.625 -14.453125 0.191406 -14.453125 -8.671875 C -14.453125 -16.765625 -11.078125 -25.144531 -4.328125 -33.8125 C 2.410156 -42.488281 10.789062 -49.910156 20.8125 -56.078125 C 20.8125 -56.460938 20.90625 -56.65625 21.09375 -56.65625 C 21.289062 -56.65625 21.390625 -56.847656 21.390625 -57.234375 C 22.929688 -60.316406 24.859375 -61.472656 27.171875 -60.703125 C 27.941406 -60.316406 28.710938 -60.316406 29.484375 -60.703125 C 32.179688 -62.242188 34.878906 -63.207031 37.578125 -63.59375 C 37.578125 -63.976562 37.960938 -64.171875 38.734375 -64.171875 C 40.660156 -64.171875 41.625 -63.015625 41.625 -60.703125 C 41.625 -58.773438 40.851562 -57.8125 39.3125 -57.8125 C 38.925781 -57.425781 38.539062 -57.234375 38.15625 -57.234375 C 37.769531 -57.234375 37.382812 -57.039062 37 -56.65625 C 35.84375 -56.269531 35.84375 -55.691406 37 -54.921875 C 52.800781 -45.671875 69.851562 -40.5625 88.15625 -39.59375 C 106.46875 -38.632812 122.5625 -42.203125 136.4375 -50.296875 L 138.171875 -50.296875 C 140.484375 -50.296875 141.640625 -49.332031 141.640625 -47.40625 C 141.640625 -46.25 140.867188 -45.285156 139.328125 -44.515625 C 124.296875 -36.035156 106.757812 -32.273438 86.71875 -33.234375 C 66.675781 -34.203125 48.175781 -39.890625 31.21875 -50.296875 C 30.0625 -51.453125 29.484375 -51.066406 29.484375 -49.140625 C 30.640625 -41.816406 29.675781 -33.914062 26.59375 -25.4375 C 23.507812 -16.957031 19.269531 -9.828125 13.875 -4.046875 C 8.476562 1.734375 2.695312 4.625 -3.46875 4.625 Z M -3.46875 -1.734375 C 1.15625 -1.734375 5.679688 -4.429688 10.109375 -9.828125 C 14.546875 -15.222656 18.113281 -21.675781 20.8125 -29.1875 C 23.507812 -36.707031 24.28125 -43.550781 23.125 -49.71875 C 14.257812 -44.320312 6.835938 -37.769531 0.859375 -30.0625 C -5.109375 -22.351562 -8.09375 -15.222656 -8.09375 -8.671875 C -8.09375 -4.046875 -6.550781 -1.734375 -3.46875 -1.734375 Z M -3.46875 -1.734375 "/></g></g><g style="fill:#000000;fill-opacity:1;"><g transform="translate(219.375152, 579.825538)"><path style="stroke:none" d="M -121.984375 146.84375 C -125.453125 146.84375 -126.609375 144.914062 -125.453125 141.0625 L -124.875 140.484375 C -124.488281 139.710938 -124.195312 139.035156 -124 138.453125 C -123.8125 137.878906 -123.523438 137.398438 -123.140625 137.015625 C -95.390625 93.460938 -64.457031 49.332031 -30.34375 4.625 C 3.757812 -40.082031 38.925781 -83.828125 75.15625 -126.609375 C 50.488281 -125.453125 26.300781 -123.910156 2.59375 -121.984375 C -21.101562 -120.054688 -43.742188 -117.550781 -65.328125 -114.46875 L -65.90625 -114.46875 C -68.21875 -114.46875 -69.375 -115.625 -69.375 -117.9375 C -69.375 -119.476562 -68.410156 -120.632812 -66.484375 -121.40625 C -43.742188 -124.488281 -19.945312 -126.992188 4.90625 -128.921875 C 29.769531 -130.847656 55.113281 -132.195312 80.9375 -132.96875 C 97.125 -152.238281 113.40625 -171.023438 129.78125 -189.328125 C 146.164062 -207.640625 162.453125 -225.660156 178.640625 -243.390625 C 179.410156 -244.160156 180.179688 -244.546875 180.953125 -244.546875 C 183.265625 -244.546875 184.421875 -243.390625 184.421875 -241.078125 C 184.421875 -239.921875 184.226562 -239.148438 183.84375 -238.765625 C 168.425781 -222.191406 152.910156 -205.039062 137.296875 -187.3125 C 121.691406 -169.582031 105.988281 -151.660156 90.1875 -133.546875 C 138.75 -135.472656 187.117188 -135.472656 235.296875 -133.546875 C 237.222656 -133.546875 238.1875 -132.390625 238.1875 -130.078125 C 238.1875 -128.148438 237.03125 -127.1875 234.71875 -127.1875 C 210.050781 -127.957031 185 -128.34375 159.5625 -128.34375 C 134.125 -128.34375 108.878906 -127.765625 83.828125 -126.609375 C 47.984375 -84.597656 13.101562 -41.53125 -20.8125 2.59375 C -54.726562 46.726562 -85.367188 90.378906 -112.734375 133.546875 C -111.191406 134.316406 -111.191406 135.664062 -112.734375 137.59375 C -114.273438 139.90625 -115.816406 142.023438 -117.359375 143.953125 C -118.898438 145.878906 -120.441406 146.84375 -121.984375 146.84375 Z M -121.984375 146.84375 "/></g></g><g style="fill:#000000;fill-opacity:1;"><g transform="translate(305.515862, 579.825538)"><path style="stroke:none" d="M -35.265625 34.6875 C -38.347656 34.6875 -39.890625 33.144531 -39.890625 30.0625 C -39.890625 25.050781 -35.265625 15.414062 -26.015625 1.15625 C -16.765625 -13.101562 -4.429688 -30.0625 10.984375 -49.71875 C 26.398438 -69.375 43.550781 -90.28125 62.4375 -112.4375 C 81.320312 -134.601562 100.492188 -156.378906 119.953125 -177.765625 C 139.421875 -199.160156 157.828125 -218.625 175.171875 -236.15625 C 192.515625 -253.695312 207.445312 -267.671875 219.96875 -278.078125 C 232.5 -288.484375 241.078125 -293.6875 245.703125 -293.6875 C 252.253906 -293.6875 255.53125 -290.410156 255.53125 -283.859375 C 255.53125 -278.078125 251.191406 -268.632812 242.515625 -255.53125 C 233.847656 -242.425781 221.898438 -227.203125 206.671875 -209.859375 C 191.453125 -192.515625 173.722656 -174.109375 153.484375 -154.640625 C 133.253906 -135.179688 111.382812 -116.007812 87.875 -97.125 C 64.363281 -78.238281 40.273438 -60.894531 15.609375 -45.09375 C 6.359375 -33.144531 -1.828125 -22.253906 -8.953125 -12.421875 C -16.085938 -2.597656 -21.773438 5.78125 -26.015625 12.71875 C -28.328125 16.570312 -28.90625 18.5 -27.75 18.5 C -26.59375 18.5 -24.664062 16.957031 -21.96875 13.875 C -18.113281 10.019531 -13.875 5.875 -9.25 1.4375 C -4.625 -2.988281 0.191406 -7.515625 5.203125 -12.140625 C 39.117188 -44.128906 61.859375 -60.125 73.421875 -60.125 C 78.816406 -60.125 81.515625 -57.234375 81.515625 -51.453125 C 81.515625 -48.753906 80.9375 -45.671875 79.78125 -42.203125 C 78.625 -38.734375 77.273438 -35.265625 75.734375 -31.796875 C 74.578125 -28.328125 73.421875 -25.050781 72.265625 -21.96875 C 71.109375 -18.882812 70.53125 -16.1875 70.53125 -13.875 C 70.53125 -7.320312 74.769531 -4.046875 83.25 -4.046875 C 91.726562 -4.046875 102.804688 -6.550781 116.484375 -11.5625 C 130.171875 -16.570312 144.046875 -22.640625 158.109375 -29.765625 C 172.179688 -36.898438 184.226562 -43.742188 194.25 -50.296875 L 195.984375 -50.296875 C 198.296875 -50.296875 199.453125 -49.332031 199.453125 -47.40625 C 199.453125 -46.25 198.875 -45.285156 197.71875 -44.515625 C 187.695312 -37.960938 175.457031 -31.023438 161 -23.703125 C 146.550781 -16.378906 132.289062 -10.113281 118.21875 -4.90625 C 104.15625 0.289062 92.5 2.890625 83.25 2.890625 C 70.53125 2.890625 64.171875 -2.695312 64.171875 -13.875 C 64.171875 -16.957031 64.75 -20.328125 65.90625 -23.984375 C 67.0625 -27.648438 68.410156 -31.21875 69.953125 -34.6875 C 71.109375 -37.769531 72.265625 -40.851562 73.421875 -43.9375 C 74.578125 -47.019531 75.15625 -49.523438 75.15625 -51.453125 C 75.15625 -52.992188 74.578125 -53.765625 73.421875 -53.765625 C 63.785156 -53.765625 42.585938 -38.347656 9.828125 -7.515625 C 4.816406 -2.503906 0 2.210938 -4.625 6.640625 C -9.25 11.078125 -13.488281 15.03125 -17.34375 18.5 C -21.582031 23.125 -25.335938 26.976562 -28.609375 30.0625 C -31.890625 33.144531 -34.109375 34.6875 -35.265625 34.6875 Z M 28.90625 -61.28125 C 52.03125 -77.082031 74.476562 -94.039062 96.25 -112.15625 C 118.03125 -130.269531 138.171875 -148.285156 156.671875 -166.203125 C 175.171875 -184.128906 191.359375 -201.085938 205.234375 -217.078125 C 219.109375 -233.078125 229.898438 -246.953125 237.609375 -258.703125 C 245.316406 -270.460938 249.171875 -278.847656 249.171875 -283.859375 C 249.171875 -285.785156 248.015625 -286.75 245.703125 -286.75 C 241.847656 -286.75 234.425781 -282.023438 223.4375 -272.578125 C 212.457031 -263.140625 199.160156 -250.519531 183.546875 -234.71875 C 167.941406 -218.914062 151.082031 -201.1875 132.96875 -181.53125 C 114.851562 -161.875 96.832031 -141.640625 78.90625 -120.828125 C 60.988281 -100.015625 44.320312 -80.164062 28.90625 -61.28125 Z M 28.90625 -61.28125 "/></g></g><g style="fill:#000000;fill-opacity:1;"><g transform="translate(488.20362, 579.825538)"><path style="stroke:none" d="M 19.078125 1.734375 C 10.597656 1.734375 3.953125 0.191406 -0.859375 -2.890625 C -5.679688 -5.972656 -8.09375 -10.40625 -8.09375 -16.1875 C -8.09375 -22.738281 -5.394531 -29.675781 0 -37 C 5.394531 -44.320312 11.847656 -50.679688 19.359375 -56.078125 C 26.878906 -61.472656 33.722656 -64.171875 39.890625 -64.171875 C 46.828125 -64.171875 50.296875 -61.085938 50.296875 -54.921875 C 50.296875 -51.066406 47.691406 -47.40625 42.484375 -43.9375 C 37.285156 -40.46875 31.988281 -38.734375 26.59375 -38.734375 C 20.039062 -38.734375 15.222656 -39.503906 12.140625 -41.046875 C 8.285156 -37.191406 5.101562 -33.046875 2.59375 -28.609375 C 0.09375 -24.179688 -1.15625 -20.039062 -1.15625 -16.1875 C -1.15625 -8.863281 5.585938 -5.203125 19.078125 -5.203125 C 24.859375 -5.203125 33.914062 -6.9375 46.25 -10.40625 C 58.582031 -13.875 72.359375 -18.882812 87.578125 -25.4375 C 102.804688 -31.988281 116.972656 -40.082031 130.078125 -49.71875 C 130.460938 -50.101562 131.039062 -50.296875 131.8125 -50.296875 C 134.125 -50.296875 135.28125 -49.332031 135.28125 -47.40625 C 135.28125 -46.25 134.703125 -45.285156 133.546875 -44.515625 C 120.054688 -34.492188 105.601562 -26.015625 90.1875 -19.078125 C 74.769531 -12.140625 60.601562 -6.9375 47.6875 -3.46875 C 34.78125 0 25.242188 1.734375 19.078125 1.734375 Z M 26.59375 -45.09375 C 29.675781 -45.09375 33.335938 -46.34375 37.578125 -48.84375 C 41.816406 -51.351562 43.9375 -53.378906 43.9375 -54.921875 C 43.9375 -56.460938 42.585938 -57.234375 39.890625 -57.234375 C 36.421875 -57.234375 32.757812 -56.171875 28.90625 -54.046875 C 25.050781 -51.929688 21.195312 -49.332031 17.34375 -46.25 C 18.5 -45.863281 19.847656 -45.570312 21.390625 -45.375 C 22.929688 -45.1875 24.664062 -45.09375 26.59375 -45.09375 Z M 26.59375 -45.09375 "/></g></g><g style="fill:#000000;fill-opacity:1;"><g transform="translate(606.719429, 579.825538)"><path style="stroke:none" d="M 7.515625 62.4375 C -2.890625 62.4375 -8.09375 57.425781 -8.09375 47.40625 C -8.09375 40.851562 -5.109375 33.238281 0.859375 24.5625 C 6.835938 15.894531 14.453125 6.84375 23.703125 -2.59375 C 32.953125 -12.039062 42.203125 -21.582031 51.453125 -31.21875 C 63.785156 -43.550781 74.769531 -54.921875 84.40625 -65.328125 C 94.039062 -75.734375 98.859375 -83.632812 98.859375 -89.03125 C 98.859375 -92.5 93.65625 -97.894531 83.25 -105.21875 C 72.457031 -94.039062 60.988281 -83.054688 48.84375 -72.265625 C 36.707031 -61.472656 25.4375 -52.222656 15.03125 -44.515625 C 14.644531 -44.128906 13.875 -43.9375 12.71875 -43.9375 C 10.789062 -43.9375 9.828125 -45.09375 9.828125 -47.40625 C 9.828125 -48.175781 10.210938 -48.945312 10.984375 -49.71875 C 22.546875 -58.195312 34.109375 -67.640625 45.671875 -78.046875 C 57.234375 -88.453125 67.832031 -98.664062 77.46875 -108.6875 C 72.457031 -112.15625 68.503906 -115.046875 65.609375 -117.359375 C 62.722656 -119.671875 61.28125 -122.175781 61.28125 -124.875 C 61.28125 -128.34375 63.398438 -132.675781 67.640625 -137.875 C 71.878906 -143.082031 77.175781 -148.09375 83.53125 -152.90625 C 89.894531 -157.726562 96.351562 -161.773438 102.90625 -165.046875 C 109.457031 -168.328125 115.046875 -169.96875 119.671875 -169.96875 C 123.910156 -169.96875 126.03125 -167.65625 126.03125 -163.03125 C 126.03125 -159.175781 122.460938 -152.332031 115.328125 -142.5 C 108.203125 -132.675781 99.050781 -121.789062 87.875 -109.84375 C 92.882812 -105.21875 97.125 -101.457031 100.59375 -98.5625 C 104.0625 -95.675781 105.796875 -92.5 105.796875 -89.03125 C 105.796875 -82.09375 100.59375 -72.9375 90.1875 -61.5625 C 79.78125 -50.195312 68.410156 -38.347656 56.078125 -26.015625 C 46.828125 -16.765625 37.769531 -7.613281 28.90625 1.4375 C 20.039062 10.5 12.71875 18.976562 6.9375 26.875 C 1.15625 34.78125 -1.734375 41.625 -1.734375 47.40625 C -1.734375 52.800781 1.347656 55.5 7.515625 55.5 C 15.609375 55.5 27.265625 52.03125 42.484375 45.09375 C 57.710938 38.15625 74.476562 29.289062 92.78125 18.5 C 111.09375 7.707031 129.398438 -3.753906 147.703125 -15.890625 C 166.015625 -28.035156 182.300781 -39.3125 196.5625 -49.71875 C 196.945312 -50.101562 197.523438 -50.296875 198.296875 -50.296875 C 200.609375 -50.296875 201.765625 -49.332031 201.765625 -47.40625 C 201.765625 -46.25 201.378906 -45.285156 200.609375 -44.515625 C 186.347656 -34.109375 169.96875 -22.738281 151.46875 -10.40625 C 132.96875 1.925781 114.273438 13.582031 95.390625 24.5625 C 76.503906 35.550781 59.351562 44.609375 43.9375 51.734375 C 28.519531 58.867188 16.378906 62.4375 7.515625 62.4375 Z M 82.09375 -113.3125 C 86.332031 -117.550781 91.050781 -122.753906 96.25 -128.921875 C 101.457031 -135.085938 106.273438 -141.0625 110.703125 -146.84375 C 115.140625 -152.625 117.9375 -157.054688 119.09375 -160.140625 C 119.863281 -162.453125 119.09375 -163.222656 116.78125 -162.453125 C 111.769531 -161.679688 105.410156 -158.789062 97.703125 -153.78125 C 89.992188 -148.769531 83.148438 -143.566406 77.171875 -138.171875 C 71.203125 -132.773438 68.21875 -128.34375 68.21875 -124.875 C 68.21875 -124.488281 69.273438 -123.332031 71.390625 -121.40625 C 73.515625 -119.476562 77.082031 -116.78125 82.09375 -113.3125 Z M 82.09375 -113.3125 "/></g></g><g style="fill:#000000;fill-opacity:1;"><g transform="translate(792.297746, 579.825538)"><path style="stroke:none" d="M -16.1875 3.46875 C -19.65625 2.695312 -21.390625 0.769531 -21.390625 -2.3125 C -21.390625 -5.007812 -18.785156 -10.304688 -13.578125 -18.203125 C -8.378906 -26.109375 -1.925781 -34.585938 5.78125 -43.640625 C 13.488281 -52.703125 20.617188 -60.316406 27.171875 -66.484375 C 27.554688 -66.867188 28.328125 -67.0625 29.484375 -67.0625 C 31.796875 -67.0625 32.953125 -65.90625 32.953125 -63.59375 C 32.953125 -62.820312 32.566406 -62.050781 31.796875 -61.28125 C 22.546875 -52.800781 14.066406 -43.742188 6.359375 -34.109375 C -1.347656 -24.472656 -6.9375 -16.570312 -10.40625 -10.40625 C -11.175781 -9.25 -11.175781 -8.476562 -10.40625 -8.09375 C -9.632812 -7.707031 -8.863281 -7.707031 -8.09375 -8.09375 C -5.007812 -10.019531 -1.347656 -12.71875 2.890625 -16.1875 C 7.128906 -19.65625 12.332031 -23.894531 18.5 -28.90625 C 40.082031 -46.632812 56.171875 -59.0625 66.765625 -66.1875 C 77.367188 -73.320312 85.367188 -76.890625 90.765625 -76.890625 C 98.859375 -76.890625 102.90625 -74 102.90625 -68.21875 C 102.90625 -63.207031 96.738281 -51.257812 84.40625 -32.375 L 75.734375 -18.5 C 74.960938 -17.34375 74.863281 -16.472656 75.4375 -15.890625 C 76.019531 -15.316406 76.890625 -15.222656 78.046875 -15.609375 L 90.765625 -23.703125 C 97.316406 -27.554688 104.15625 -31.3125 111.28125 -34.96875 C 118.414062 -38.632812 123.910156 -40.46875 127.765625 -40.46875 C 132.773438 -40.46875 135.28125 -37.769531 135.28125 -32.375 C 135.28125 -30.832031 135.179688 -29.289062 134.984375 -27.75 C 134.796875 -26.207031 134.703125 -24.664062 134.703125 -23.125 C 134.316406 -21.582031 134.023438 -19.847656 133.828125 -17.921875 C 133.640625 -15.992188 133.546875 -14.066406 133.546875 -12.140625 C 133.546875 -9.054688 136.242188 -7.515625 141.640625 -7.515625 C 148.960938 -7.515625 158.984375 -10.789062 171.703125 -17.34375 C 184.421875 -23.894531 201.765625 -34.6875 223.734375 -49.71875 C 224.117188 -50.101562 224.695312 -50.296875 225.46875 -50.296875 C 227.78125 -50.296875 228.9375 -49.332031 228.9375 -47.40625 C 228.9375 -46.25 228.359375 -45.285156 227.203125 -44.515625 C 204.847656 -29.097656 187.019531 -18.015625 173.71875 -11.265625 C 160.425781 -4.523438 149.734375 -1.15625 141.640625 -1.15625 C 132.003906 -1.15625 127.1875 -4.816406 127.1875 -12.140625 C 127.1875 -14.066406 127.1875 -16.085938 127.1875 -18.203125 C 127.1875 -20.328125 127.378906 -22.160156 127.765625 -23.703125 C 128.148438 -25.628906 128.4375 -27.265625 128.625 -28.609375 C 128.820312 -29.960938 128.921875 -31.21875 128.921875 -32.375 C 128.921875 -33.53125 128.148438 -34.109375 126.609375 -34.109375 C 124.679688 -34.109375 121.304688 -32.953125 116.484375 -30.640625 C 111.671875 -28.328125 104.253906 -24.085938 94.234375 -17.921875 C 86.523438 -12.910156 80.9375 -9.535156 77.46875 -7.796875 C 74 -6.066406 71.300781 -5.203125 69.375 -5.203125 C 66.675781 -5.203125 65.328125 -6.9375 65.328125 -10.40625 C 65.328125 -12.332031 66.289062 -15.125 68.21875 -18.78125 C 70.144531 -22.445312 73.804688 -28.132812 79.203125 -35.84375 C 85.367188 -45.476562 89.703125 -52.703125 92.203125 -57.515625 C 94.710938 -62.335938 95.96875 -65.710938 95.96875 -67.640625 C 95.96875 -69.566406 94.8125 -70.53125 92.5 -70.53125 C 87.875 -70.53125 81.707031 -68.117188 74 -63.296875 C 66.289062 -58.484375 58.003906 -52.507812 49.140625 -45.375 C 40.273438 -38.25 31.410156 -31.21875 22.546875 -24.28125 C 9.441406 -13.488281 0.289062 -6.164062 -4.90625 -2.3125 C -10.113281 1.539062 -13.875 3.46875 -16.1875 3.46875 Z M -16.1875 3.46875 "/></g></g><g style="fill:#000000;fill-opacity:1;"><g transform="translate(1005.048023, 579.825538)"><path style="stroke:none" d="M 41.625 -74.578125 C 39.3125 -74.578125 38.15625 -75.539062 38.15625 -77.46875 C 38.15625 -78.625 38.347656 -79.394531 38.734375 -79.78125 L 41.046875 -82.09375 C 41.816406 -83.25 42.78125 -84.597656 43.9375 -86.140625 C 45.09375 -87.679688 45.863281 -88.835938 46.25 -89.609375 C 47.019531 -90.378906 47.984375 -90.765625 49.140625 -90.765625 C 51.066406 -90.765625 52.03125 -89.609375 52.03125 -87.296875 C 52.03125 -86.140625 51.835938 -85.367188 51.453125 -84.984375 C 49.910156 -83.441406 48.175781 -81.128906 46.25 -78.046875 L 43.9375 -75.734375 C 43.550781 -74.960938 42.78125 -74.578125 41.625 -74.578125 Z M 4.625 3.46875 C -5.78125 3.46875 -10.984375 -1.539062 -10.984375 -11.5625 C -10.984375 -16.957031 -7.800781 -24.375 -1.4375 -33.8125 C 4.914062 -43.257812 13.488281 -53.378906 24.28125 -64.171875 C 24.664062 -64.554688 25.4375 -64.75 26.59375 -64.75 C 28.90625 -64.75 30.0625 -63.785156 30.0625 -61.859375 C 30.0625 -61.085938 29.675781 -60.316406 28.90625 -59.546875 C 19.269531 -49.523438 11.269531 -40.082031 4.90625 -31.21875 C -1.445312 -22.351562 -4.625 -15.800781 -4.625 -11.5625 C -4.625 -6.164062 -1.539062 -3.46875 4.625 -3.46875 C 9.25 -3.46875 15.894531 -4.910156 24.5625 -7.796875 C 33.238281 -10.691406 42.972656 -14.546875 53.765625 -19.359375 C 64.554688 -24.179688 75.15625 -29.289062 85.5625 -34.6875 C 95.96875 -40.082031 104.832031 -45.285156 112.15625 -50.296875 L 113.890625 -50.296875 C 116.203125 -50.296875 117.359375 -49.332031 117.359375 -47.40625 C 117.359375 -46.25 116.972656 -45.285156 116.203125 -44.515625 C 108.492188 -39.503906 99.335938 -34.203125 88.734375 -28.609375 C 78.140625 -23.023438 67.253906 -17.820312 56.078125 -13 C 44.898438 -8.1875 34.78125 -4.238281 25.71875 -1.15625 C 16.664062 1.925781 9.632812 3.46875 4.625 3.46875 Z M 4.625 3.46875 "/></g></g><g style="fill:#000000;fill-opacity:1;"><g transform="translate(1106.219975, 579.825538)"><path style="stroke:none" d="M -16.1875 0 C -20.039062 0 -21.582031 -2.117188 -20.8125 -6.359375 C -20.425781 -8.285156 -18.015625 -12.425781 -13.578125 -18.78125 C -9.148438 -25.144531 -3.46875 -32.46875 3.46875 -40.75 C 10.40625 -49.039062 18.015625 -57.519531 26.296875 -66.1875 C 34.585938 -74.863281 42.972656 -82.285156 51.453125 -88.453125 C 51.835938 -88.835938 52.609375 -89.03125 53.765625 -89.03125 C 55.691406 -89.03125 56.65625 -88.066406 56.65625 -86.140625 C 56.65625 -84.984375 56.269531 -84.019531 55.5 -83.25 C 43.9375 -74.769531 32.566406 -64.171875 21.390625 -51.453125 C 10.210938 -38.734375 1.347656 -27.941406 -5.203125 -19.078125 C -5.585938 -18.304688 -5.679688 -17.535156 -5.484375 -16.765625 C -5.296875 -15.992188 -4.429688 -15.992188 -2.890625 -16.765625 C 41.816406 -49.140625 71.109375 -65.328125 84.984375 -65.328125 C 91.148438 -65.328125 94.234375 -62.628906 94.234375 -57.234375 C 94.234375 -54.535156 93.75 -51.066406 92.78125 -46.828125 C 91.820312 -42.585938 90.957031 -38.347656 90.1875 -34.109375 C 87.875 -26.785156 86.71875 -21.195312 86.71875 -17.34375 C 86.71875 -14.257812 88.835938 -12.71875 93.078125 -12.71875 C 102.710938 -12.71875 115.625 -16.085938 131.8125 -22.828125 C 148 -29.578125 164.765625 -38.734375 182.109375 -50.296875 L 183.84375 -50.296875 C 186.15625 -50.296875 187.3125 -49.332031 187.3125 -47.40625 C 187.3125 -46.25 186.734375 -45.285156 185.578125 -44.515625 C 167.847656 -32.953125 150.597656 -23.703125 133.828125 -16.765625 C 117.066406 -9.828125 103.484375 -6.359375 93.078125 -6.359375 C 84.210938 -6.359375 79.78125 -10.019531 79.78125 -17.34375 C 79.78125 -19.269531 80.164062 -21.867188 80.9375 -25.140625 C 81.707031 -28.421875 82.476562 -31.988281 83.25 -35.84375 C 84.40625 -40.082031 85.460938 -44.128906 86.421875 -47.984375 C 87.390625 -51.835938 87.875 -54.535156 87.875 -56.078125 C 87.875 -58.003906 86.910156 -58.96875 84.984375 -58.96875 C 78.816406 -58.96875 70.335938 -55.976562 59.546875 -50 C 48.753906 -44.03125 37.769531 -37.09375 26.59375 -29.1875 C 15.414062 -21.289062 5.972656 -14.644531 -1.734375 -9.25 C -5.203125 -6.9375 -8.1875 -4.816406 -10.6875 -2.890625 C -13.195312 -0.960938 -15.03125 0 -16.1875 0 Z M -16.1875 0 "/></g></g><g style="fill:#000000;fill-opacity:1;"><g transform="translate(1276.767182, 579.825538)"><path style="stroke:none" d="M 58.390625 0.578125 C 44.515625 0.578125 37.578125 -5.203125 37.578125 -16.765625 C 37.578125 -21.773438 41.816406 -31.21875 50.296875 -45.09375 C 51.066406 -46.25 51.257812 -47.019531 50.875 -47.40625 C 50.488281 -47.789062 49.71875 -47.597656 48.5625 -46.828125 C 33.53125 -32.953125 20.8125 -21.773438 10.40625 -13.296875 C 0 -4.816406 -7.707031 -0.578125 -12.71875 -0.578125 C -17.726562 -0.578125 -20.234375 -3.273438 -20.234375 -8.671875 C -20.234375 -15.992188 -16.472656 -23.894531 -8.953125 -32.375 C -1.441406 -40.851562 7.515625 -48.269531 17.921875 -54.625 C 28.328125 -60.988281 37.769531 -64.171875 46.25 -64.171875 C 50.488281 -64.171875 53.570312 -63.398438 55.5 -61.859375 C 58.195312 -64.554688 60.894531 -67.0625 63.59375 -69.375 C 66.289062 -71.6875 68.988281 -74.191406 71.6875 -76.890625 C 83.632812 -93.460938 97.410156 -111.671875 113.015625 -131.515625 C 128.628906 -151.367188 144.816406 -171.023438 161.578125 -190.484375 C 178.347656 -209.953125 194.25 -227.679688 209.28125 -243.671875 C 224.3125 -259.671875 237.316406 -272.488281 248.296875 -282.125 C 259.285156 -291.757812 266.898438 -296.578125 271.140625 -296.578125 C 276.535156 -296.578125 279.234375 -294.070312 279.234375 -289.0625 C 279.234375 -285.976562 274.992188 -279.039062 266.515625 -268.25 C 258.035156 -257.457031 246.566406 -244.253906 232.109375 -228.640625 C 217.660156 -213.035156 201.570312 -195.984375 183.84375 -177.484375 C 166.113281 -158.984375 147.804688 -140.484375 128.921875 -121.984375 C 110.035156 -103.484375 91.921875 -86.332031 74.578125 -70.53125 L 63.59375 -54.34375 C 64.75 -52.03125 65.328125 -49.140625 65.328125 -45.671875 C 64.554688 -43.742188 63.398438 -42.78125 61.859375 -42.78125 C 59.546875 -42.78125 58.390625 -43.9375 58.390625 -46.25 C 58.390625 -46.632812 58.390625 -46.828125 58.390625 -46.828125 C 54.148438 -39.503906 50.679688 -33.335938 47.984375 -28.328125 C 45.285156 -23.316406 43.9375 -19.460938 43.9375 -16.765625 C 43.9375 -9.828125 48.753906 -6.359375 58.390625 -6.359375 C 65.328125 -6.359375 74.960938 -8.1875 87.296875 -11.84375 C 99.628906 -15.507812 112.925781 -20.617188 127.1875 -27.171875 C 141.445312 -33.722656 154.9375 -41.429688 167.65625 -50.296875 C 168.039062 -50.296875 168.328125 -50.390625 168.515625 -50.578125 C 168.710938 -50.773438 169.003906 -50.875 169.390625 -50.875 C 171.703125 -50.875 172.859375 -49.71875 172.859375 -47.40625 C 172.859375 -46.25 172.28125 -45.285156 171.125 -44.515625 C 158.019531 -35.648438 144.144531 -27.75 129.5 -20.8125 C 114.851562 -13.875 101.171875 -8.570312 88.453125 -4.90625 C 75.734375 -1.25 65.710938 0.578125 58.390625 0.578125 Z M 97.703125 -101.75 C 117.742188 -121.019531 138.070312 -141.0625 158.6875 -161.875 C 179.3125 -182.6875 198.195312 -202.242188 215.34375 -220.546875 C 232.5 -238.859375 246.375 -254.179688 256.96875 -266.515625 C 267.570312 -278.847656 272.875 -286.363281 272.875 -289.0625 C 272.875 -289.832031 272.296875 -290.21875 271.140625 -290.21875 C 268.054688 -290.21875 262.082031 -286.363281 253.21875 -278.65625 C 244.351562 -270.945312 233.753906 -260.539062 221.421875 -247.4375 C 209.085938 -234.332031 195.691406 -219.585938 181.234375 -203.203125 C 166.785156 -186.828125 152.332031 -169.867188 137.875 -152.328125 C 123.425781 -134.796875 110.035156 -117.9375 97.703125 -101.75 Z M -11.5625 -7.515625 C -8.476562 -7.515625 -1.445312 -12.039062 9.53125 -21.09375 C 20.519531 -30.15625 34.109375 -42.203125 50.296875 -57.234375 L 46.25 -57.234375 C 38.925781 -57.234375 30.640625 -54.4375 21.390625 -48.84375 C 12.140625 -43.257812 4.046875 -36.707031 -2.890625 -29.1875 C -9.828125 -21.675781 -13.296875 -15.03125 -13.296875 -9.25 C -13.296875 -8.09375 -12.71875 -7.515625 -11.5625 -7.515625 Z M -11.5625 -7.515625 "/></g></g><g style="fill:#000000;fill-opacity:1;"><g transform="translate(1433.439188, 579.825538)"><path style="stroke:none" d="M -2.3125 27.75 C -8.863281 27.75 -12.140625 25.242188 -12.140625 20.234375 C -12.140625 16.378906 -8.671875 12.234375 -1.734375 7.796875 C 5.203125 3.367188 13.488281 -0.960938 23.125 -5.203125 C 32.757812 -9.441406 41.429688 -12.910156 49.140625 -15.609375 C 49.910156 -15.609375 50.296875 -15.800781 50.296875 -16.1875 C 51.066406 -17.726562 51.929688 -19.171875 52.890625 -20.515625 C 53.859375 -21.867188 53.957031 -22.929688 53.1875 -23.703125 C 52.800781 -24.472656 50.003906 -24.566406 44.796875 -23.984375 C 39.597656 -23.410156 35.84375 -22.929688 33.53125 -22.546875 C 30.0625 -22.160156 26.6875 -21.675781 23.40625 -21.09375 C 20.132812 -20.519531 16.957031 -20.234375 13.875 -20.234375 C 4.625 -20.234375 0 -23.316406 0 -29.484375 C 0 -35.265625 3.082031 -41.429688 9.25 -47.984375 C 15.414062 -54.535156 22.738281 -60.21875 31.21875 -65.03125 C 39.695312 -69.851562 47.40625 -72.265625 54.34375 -72.265625 C 61.28125 -72.265625 64.75 -69.375 64.75 -63.59375 C 64.75 -62.4375 64.554688 -61.664062 64.171875 -61.28125 C 62.242188 -53.570312 58.195312 -47.984375 52.03125 -44.515625 C 51.644531 -44.128906 51.066406 -43.9375 50.296875 -43.9375 C 47.984375 -43.9375 46.828125 -45.09375 46.828125 -47.40625 C 46.828125 -48.945312 47.40625 -49.910156 48.5625 -50.296875 C 50.488281 -51.453125 52.507812 -53.378906 54.625 -56.078125 C 56.75 -58.773438 57.8125 -61.085938 57.8125 -63.015625 C 57.8125 -64.941406 56.65625 -65.90625 54.34375 -65.90625 C 48.5625 -65.90625 42.007812 -63.785156 34.6875 -59.546875 C 27.363281 -55.304688 20.90625 -50.390625 15.3125 -44.796875 C 9.726562 -39.210938 6.9375 -34.109375 6.9375 -29.484375 C 6.9375 -27.554688 9.25 -26.59375 13.875 -26.59375 C 16.570312 -26.59375 19.554688 -26.878906 22.828125 -27.453125 C 26.109375 -28.035156 29.289062 -28.519531 32.375 -28.90625 C 35.457031 -29.675781 38.441406 -30.253906 41.328125 -30.640625 C 44.222656 -31.023438 46.828125 -31.21875 49.140625 -31.21875 C 56.460938 -31.21875 60.125 -28.519531 60.125 -23.125 C 59.738281 -22.738281 59.546875 -22.351562 59.546875 -21.96875 C 59.546875 -21.582031 59.351562 -21.003906 58.96875 -20.234375 C 58.96875 -18.691406 59.351562 -18.304688 60.125 -19.078125 C 67.0625 -21.003906 74.476562 -23.21875 82.375 -25.71875 C 90.28125 -28.226562 98.28125 -30.640625 106.375 -32.953125 C 116.394531 -36.035156 126.414062 -39.019531 136.4375 -41.90625 C 146.457031 -44.800781 155.707031 -47.597656 164.1875 -50.296875 L 165.34375 -50.296875 C 167.269531 -50.296875 168.234375 -49.332031 168.234375 -47.40625 C 168.234375 -45.476562 167.460938 -44.320312 165.921875 -43.9375 C 157.441406 -41.238281 148.191406 -38.441406 138.171875 -35.546875 C 128.148438 -32.660156 118.128906 -29.675781 108.109375 -26.59375 C 98.472656 -23.894531 89.125 -21.097656 80.0625 -18.203125 C 71.007812 -15.316406 62.628906 -12.71875 54.921875 -10.40625 L 53.1875 -9.25 C 47.40625 -0.769531 39.117188 7.515625 28.328125 15.609375 C 17.535156 23.703125 7.320312 27.75 -2.3125 27.75 Z M -2.3125 20.8125 C 4.238281 20.8125 11.460938 18.398438 19.359375 13.578125 C 27.265625 8.765625 34.109375 3.273438 39.890625 -2.890625 C 41.046875 -4.046875 40.660156 -4.625 38.734375 -4.625 C 26.785156 0.382812 16.378906 5.296875 7.515625 10.109375 C -1.347656 14.929688 -5.78125 18.113281 -5.78125 19.65625 C -5.78125 20.425781 -4.625 20.8125 -2.3125 20.8125 Z M -2.3125 20.8125 "/></g></g></g></svg>